<svg xmlns="http://www.w3.org/2000/svg" width="1536" height="1536" viewBox="0 0 1536 1536" role="img" aria-label="Hzifa33 H logo with transparent background">
  <defs>
    <linearGradient id="logoGradient" x1="479" y1="0" x2="1058" y2="0" gradientUnits="userSpaceOnUse">
      <stop offset="0%" stop-color="#702AFA"/>
      <stop offset="50%" stop-color="#692DF9"/>
      <stop offset="100%" stop-color="#6131F9"/>
    </linearGradient>
  </defs>
  <path d="M 632.5 420.5 L 631.5 421.5 L 630.5 421.5 L 629.5 421.5 L 628.5 421.5 L 627.5 422.5 L 626.5 422.5 L 625.5 422.5 L 624.5 422.5 L 623.5 422.5 L 622.5 423.5 L 621.5 423.5 L 620.5 424.5 L 619.5 424.5 L 618.5 425.5 L 617.5 425.5 L 616.5 426.5 L 615.5 426.5 L 614.5 427.5 L 613.5 428.5 L 612.5 428.5 L 611.5 429.5 L 610.5 429.5 L 609.5 430.5 L 608.5 430.5 L 607.5 431.5 L 606.5 432.5 L 605.5 432.5 L 604.5 433.5 L 603.5 433.5 L 602.5 434.5 L 601.5 435.5 L 600.5 435.5 L 599.5 436.5 L 598.5 436.5 L 597.5 437.5 L 596.5 438.5 L 595.5 438.5 L 594.5 439.5 L 593.5 439.5 L 592.5 440.5 L 591.5 441.5 L 590.5 441.5 L 589.5 442.5 L 588.5 442.5 L 587.5 443.5 L 586.5 444.5 L 585.5 444.5 L 584.5 445.5 L 583.5 445.5 L 582.5 446.5 L 581.5 447.5 L 580.5 447.5 L 579.5 448.5 L 578.5 448.5 L 577.5 449.5 L 576.5 450.5 L 575.5 450.5 L 574.5 451.5 L 573.5 451.5 L 572.5 452.5 L 571.5 453.5 L 570.5 453.5 L 569.5 454.5 L 568.5 454.5 L 567.5 455.5 L 566.5 455.5 L 565.5 456.5 L 564.5 456.5 L 563.5 457.5 L 562.5 458.5 L 561.5 458.5 L 560.5 459.5 L 559.5 460.5 L 558.5 460.5 L 557.5 461.5 L 556.5 461.5 L 555.5 462.5 L 554.5 463.5 L 553.5 463.5 L 552.5 464.5 L 551.5 465.5 L 550.5 465.5 L 549.5 466.5 L 548.5 466.5 L 547.5 467.5 L 546.5 467.5 L 545.5 468.5 L 544.5 469.5 L 543.5 469.5 L 542.5 470.5 L 541.5 470.5 L 540.5 471.5 L 539.5 472.5 L 538.5 472.5 L 537.5 473.5 L 536.5 473.5 L 535.5 474.5 L 534.5 475.5 L 533.5 475.5 L 532.5 476.5 L 531.5 476.5 L 530.5 477.5 L 529.5 478.5 L 528.5 478.5 L 527.5 479.5 L 526.5 480.5 L 525.5 480.5 L 524.5 480.5 L 523.5 481.5 L 522.5 482.5 L 521.5 482.5 L 520.5 483.5 L 519.5 484.5 L 518.5 484.5 L 517.5 485.5 L 516.5 485.5 L 515.5 486.5 L 514.5 487.5 L 513.5 487.5 L 512.5 488.5 L 511.5 488.5 L 510.5 489.5 L 509.5 489.5 L 508.5 490.5 L 507.5 491.5 L 506.5 491.5 L 505.5 492.5 L 504.5 492.5 L 503.5 493.5 L 502.5 494.5 L 501.5 495.5 L 500.5 496.5 L 499.5 496.5 L 498.5 497.5 L 497.5 498.5 L 496.5 499.5 L 495.5 500.5 L 494.5 501.5 L 494.5 502.5 L 493.5 503.5 L 492.5 504.5 L 491.5 505.5 L 490.5 506.5 L 490.5 507.5 L 489.5 508.5 L 488.5 509.5 L 488.5 510.5 L 487.5 511.5 L 487.5 512.5 L 486.5 513.5 L 486.5 514.5 L 485.5 515.5 L 485.5 516.5 L 484.5 517.5 L 484.5 518.5 L 483.5 519.5 L 483.5 520.5 L 482.5 521.5 L 482.5 522.5 L 482.5 523.5 L 481.5 524.5 L 481.5 525.5 L 481.5 526.5 L 480.5 527.5 L 480.5 528.5 L 480.5 529.5 L 480.5 530.5 L 480.5 531.5 L 480.5 532.5 L 480.5 533.5 L 479.5 534.5 L 479.5 535.5 L 479.5 536.5 L 479.5 537.5 L 479.5 538.5 L 479.5 539.5 L 479.5 540.5 L 479.5 541.5 L 479.5 542.5 L 479.5 543.5 L 479.5 544.5 L 479.5 545.5 L 479.5 546.5 L 479.5 547.5 L 479.5 548.5 L 479.5 549.5 L 479.5 550.5 L 479.5 551.5 L 479.5 552.5 L 479.5 553.5 L 479.5 554.5 L 479.5 555.5 L 479.5 556.5 L 479.5 557.5 L 479.5 558.5 L 479.5 559.5 L 479.5 560.5 L 479.5 561.5 L 479.5 562.5 L 479.5 563.5 L 479.5 564.5 L 479.5 565.5 L 479.5 566.5 L 479.5 567.5 L 479.5 568.5 L 479.5 569.5 L 479.5 570.5 L 479.5 571.5 L 479.5 572.5 L 479.5 573.5 L 479.5 574.5 L 479.5 575.5 L 479.5 576.5 L 479.5 577.5 L 479.5 578.5 L 479.5 579.5 L 479.5 580.5 L 479.5 581.5 L 479.5 582.5 L 479.5 583.5 L 479.5 584.5 L 479.5 585.5 L 479.5 586.5 L 479.5 587.5 L 479.5 588.5 L 479.5 589.5 L 479.5 590.5 L 479.5 591.5 L 479.5 592.5 L 479.5 593.5 L 479.5 594.5 L 479.5 595.5 L 479.5 596.5 L 479.5 597.5 L 479.5 598.5 L 479.5 599.5 L 479.5 600.5 L 479.5 601.5 L 479.5 602.5 L 479.5 603.5 L 479.5 604.5 L 479.5 605.5 L 479.5 606.5 L 479.5 607.5 L 479.5 608.5 L 479.5 609.5 L 479.5 610.5 L 479.5 611.5 L 479.5 612.5 L 479.5 613.5 L 479.5 614.5 L 479.5 615.5 L 479.5 616.5 L 479.5 617.5 L 479.5 618.5 L 479.5 619.5 L 479.5 620.5 L 479.5 621.5 L 479.5 622.5 L 479.5 623.5 L 479.5 624.5 L 479.5 625.5 L 479.5 626.5 L 479.5 627.5 L 479.5 628.5 L 479.5 629.5 L 479.5 630.5 L 479.5 631.5 L 479.5 632.5 L 479.5 633.5 L 479.5 634.5 L 479.5 635.5 L 479.5 636.5 L 479.5 637.5 L 479.5 638.5 L 479.5 639.5 L 479.5 640.5 L 479.5 641.5 L 479.5 642.5 L 479.5 643.5 L 479.5 644.5 L 479.5 645.5 L 479.5 646.5 L 479.5 647.5 L 479.5 648.5 L 479.5 649.5 L 479.5 650.5 L 479.5 651.5 L 479.5 652.5 L 479.5 653.5 L 479.5 654.5 L 479.5 655.5 L 479.5 656.5 L 479.5 657.5 L 479.5 658.5 L 479.5 659.5 L 479.5 660.5 L 479.5 661.5 L 479.5 662.5 L 479.5 663.5 L 479.5 664.5 L 479.5 665.5 L 479.5 666.5 L 479.5 667.5 L 479.5 668.5 L 479.5 669.5 L 479.5 670.5 L 479.5 671.5 L 479.5 672.5 L 479.5 673.5 L 479.5 674.5 L 479.5 675.5 L 479.5 676.5 L 479.5 677.5 L 479.5 678.5 L 479.5 679.5 L 479.5 680.5 L 479.5 681.5 L 479.5 682.5 L 479.5 683.5 L 479.5 684.5 L 479.5 685.5 L 479.5 686.5 L 479.5 687.5 L 479.5 688.5 L 479.5 689.5 L 479.5 690.5 L 479.5 691.5 L 479.5 692.5 L 479.5 693.5 L 479.5 694.5 L 479.5 695.5 L 479.5 696.5 L 479.5 697.5 L 479.5 698.5 L 479.5 699.5 L 479.5 700.5 L 479.5 701.5 L 479.5 702.5 L 479.5 703.5 L 479.5 704.5 L 479.5 705.5 L 479.5 706.5 L 479.5 707.5 L 479.5 708.5 L 479.5 709.5 L 479.5 710.5 L 479.5 711.5 L 479.5 712.5 L 479.5 713.5 L 479.5 714.5 L 479.5 715.5 L 479.5 716.5 L 479.5 717.5 L 479.5 718.5 L 479.5 719.5 L 479.5 720.5 L 479.5 721.5 L 479.5 722.5 L 479.5 723.5 L 479.5 724.5 L 479.5 725.5 L 479.5 726.5 L 479.5 727.5 L 479.5 728.5 L 479.5 729.5 L 479.5 730.5 L 479.5 731.5 L 479.5 732.5 L 479.5 733.5 L 479.5 734.5 L 479.5 735.5 L 479.5 736.5 L 479.5 737.5 L 479.5 738.5 L 479.5 739.5 L 479.5 740.5 L 479.5 741.5 L 479.5 742.5 L 479.5 743.5 L 479.5 744.5 L 479.5 745.5 L 479.5 746.5 L 479.5 747.5 L 479.5 748.5 L 479.5 749.5 L 479.5 750.5 L 479.5 751.5 L 479.5 752.5 L 479.5 753.5 L 479.5 754.5 L 479.5 755.5 L 479.5 756.5 L 479.5 757.5 L 479.5 758.5 L 479.5 759.5 L 479.5 760.5 L 479.5 761.5 L 479.5 762.5 L 479.5 763.5 L 479.5 764.5 L 479.5 765.5 L 479.5 766.5 L 479.5 767.5 L 479.5 768.5 L 479.5 769.5 L 479.5 770.5 L 479.5 771.5 L 479.5 772.5 L 479.5 773.5 L 479.5 774.5 L 479.5 775.5 L 479.5 776.5 L 479.5 777.5 L 479.5 778.5 L 479.5 779.5 L 479.5 780.5 L 479.5 781.5 L 479.5 782.5 L 479.5 783.5 L 479.5 784.5 L 479.5 785.5 L 479.5 786.5 L 479.5 787.5 L 479.5 788.5 L 479.5 789.5 L 479.5 790.5 L 479.5 791.5 L 479.5 792.5 L 479.5 793.5 L 479.5 794.5 L 479.5 795.5 L 479.5 796.5 L 479.5 797.5 L 479.5 798.5 L 479.5 799.5 L 479.5 800.5 L 479.5 801.5 L 479.5 802.5 L 479.5 803.5 L 479.5 804.5 L 479.5 805.5 L 479.5 806.5 L 479.5 807.5 L 479.5 808.5 L 479.5 809.5 L 479.5 810.5 L 479.5 811.5 L 479.5 812.5 L 479.5 813.5 L 479.5 814.5 L 479.5 815.5 L 479.5 816.5 L 479.5 817.5 L 479.5 818.5 L 479.5 819.5 L 479.5 820.5 L 479.5 821.5 L 479.5 822.5 L 479.5 823.5 L 479.5 824.5 L 479.5 825.5 L 479.5 826.5 L 479.5 827.5 L 479.5 828.5 L 479.5 829.5 L 479.5 830.5 L 479.5 831.5 L 479.5 832.5 L 479.5 833.5 L 479.5 834.5 L 479.5 835.5 L 479.5 836.5 L 479.5 837.5 L 479.5 838.5 L 479.5 839.5 L 479.5 840.5 L 479.5 841.5 L 479.5 842.5 L 479.5 843.5 L 479.5 844.5 L 479.5 845.5 L 479.5 846.5 L 479.5 847.5 L 479.5 848.5 L 479.5 849.5 L 479.5 850.5 L 479.5 851.5 L 479.5 852.5 L 479.5 853.5 L 479.5 854.5 L 479.5 855.5 L 479.5 856.5 L 479.5 857.5 L 479.5 858.5 L 479.5 859.5 L 479.5 860.5 L 479.5 861.5 L 479.5 862.5 L 479.5 863.5 L 479.5 864.5 L 479.5 865.5 L 479.5 866.5 L 479.5 867.5 L 479.5 868.5 L 479.5 869.5 L 479.5 870.5 L 479.5 871.5 L 479.5 872.5 L 479.5 873.5 L 479.5 874.5 L 479.5 875.5 L 479.5 876.5 L 479.5 877.5 L 479.5 878.5 L 479.5 879.5 L 479.5 880.5 L 479.5 881.5 L 479.5 882.5 L 479.5 883.5 L 479.5 884.5 L 479.5 885.5 L 479.5 886.5 L 479.5 887.5 L 479.5 888.5 L 479.5 889.5 L 479.5 890.5 L 479.5 891.5 L 479.5 892.5 L 479.5 893.5 L 479.5 894.5 L 479.5 895.5 L 479.5 896.5 L 479.5 897.5 L 479.5 898.5 L 479.5 899.5 L 479.5 900.5 L 479.5 901.5 L 479.5 902.5 L 479.5 903.5 L 479.5 904.5 L 479.5 905.5 L 479.5 906.5 L 479.5 907.5 L 479.5 908.5 L 479.5 909.5 L 479.5 910.5 L 479.5 911.5 L 479.5 912.5 L 479.5 913.5 L 479.5 914.5 L 479.5 915.5 L 479.5 916.5 L 479.5 917.5 L 479.5 918.5 L 479.5 919.5 L 479.5 920.5 L 479.5 921.5 L 479.5 922.5 L 479.5 923.5 L 479.5 924.5 L 479.5 925.5 L 479.5 926.5 L 479.5 927.5 L 479.5 928.5 L 479.5 929.5 L 479.5 930.5 L 479.5 931.5 L 479.5 932.5 L 479.5 933.5 L 479.5 934.5 L 479.5 935.5 L 479.5 936.5 L 479.5 937.5 L 479.5 938.5 L 479.5 939.5 L 479.5 940.5 L 479.5 941.5 L 479.5 942.5 L 479.5 943.5 L 479.5 944.5 L 479.5 945.5 L 479.5 946.5 L 479.5 947.5 L 479.5 948.5 L 479.5 949.5 L 479.5 950.5 L 479.5 951.5 L 479.5 952.5 L 479.5 953.5 L 479.5 954.5 L 479.5 955.5 L 479.5 956.5 L 479.5 957.5 L 479.5 958.5 L 479.5 959.5 L 479.5 960.5 L 479.5 961.5 L 479.5 962.5 L 479.5 963.5 L 479.5 964.5 L 479.5 965.5 L 479.5 966.5 L 479.5 967.5 L 479.5 968.5 L 480.5 969.5 L 480.5 970.5 L 480.5 971.5 L 480.5 972.5 L 480.5 973.5 L 480.5 974.5 L 481.5 975.5 L 481.5 976.5 L 481.5 977.5 L 482.5 978.5 L 482.5 979.5 L 482.5 980.5 L 483.5 981.5 L 483.5 982.5 L 483.5 983.5 L 484.5 984.5 L 484.5 985.5 L 485.5 986.5 L 485.5 987.5 L 486.5 988.5 L 486.5 989.5 L 487.5 990.5 L 487.5 991.5 L 488.5 992.5 L 489.5 993.5 L 490.5 994.5 L 490.5 995.5 L 491.5 996.5 L 492.5 997.5 L 492.5 998.5 L 493.5 999.5 L 494.5 1000.5 L 495.5 1001.5 L 496.5 1002.5 L 497.5 1003.5 L 498.5 1004.5 L 499.5 1005.5 L 500.5 1006.5 L 501.5 1006.5 L 502.5 1007.5 L 503.5 1008.5 L 504.5 1009.5 L 505.5 1009.5 L 506.5 1010.5 L 507.5 1010.5 L 508.5 1011.5 L 509.5 1012.5 L 510.5 1012.5 L 511.5 1013.5 L 512.5 1013.5 L 513.5 1014.5 L 514.5 1015.5 L 515.5 1015.5 L 516.5 1016.5 L 517.5 1016.5 L 518.5 1017.5 L 519.5 1018.5 L 520.5 1018.5 L 521.5 1019.5 L 522.5 1019.5 L 523.5 1020.5 L 524.5 1021.5 L 525.5 1021.5 L 526.5 1022.5 L 527.5 1022.5 L 528.5 1023.5 L 529.5 1023.5 L 530.5 1024.5 L 531.5 1025.5 L 532.5 1025.5 L 533.5 1026.5 L 534.5 1027.5 L 535.5 1027.5 L 536.5 1028.5 L 537.5 1028.5 L 538.5 1029.5 L 539.5 1030.5 L 540.5 1030.5 L 541.5 1031.5 L 542.5 1031.5 L 543.5 1032.5 L 544.5 1033.5 L 545.5 1033.5 L 546.5 1034.5 L 547.5 1034.5 L 548.5 1035.5 L 549.5 1036.5 L 550.5 1036.5 L 551.5 1037.5 L 552.5 1037.5 L 553.5 1038.5 L 554.5 1039.5 L 555.5 1039.5 L 556.5 1040.5 L 557.5 1040.5 L 558.5 1041.5 L 559.5 1042.5 L 560.5 1042.5 L 561.5 1043.5 L 562.5 1043.5 L 563.5 1044.5 L 564.5 1044.5 L 565.5 1045.5 L 566.5 1046.5 L 567.5 1046.5 L 568.5 1047.5 L 569.5 1047.5 L 570.5 1048.5 L 571.5 1049.5 L 572.5 1049.5 L 573.5 1050.5 L 574.5 1050.5 L 575.5 1051.5 L 576.5 1052.5 L 577.5 1052.5 L 578.5 1053.5 L 579.5 1053.5 L 580.5 1054.5 L 581.5 1055.5 L 582.5 1055.5 L 583.5 1056.5 L 584.5 1057.5 L 585.5 1057.5 L 586.5 1058.5 L 587.5 1058.5 L 588.5 1059.5 L 589.5 1059.5 L 590.5 1060.5 L 591.5 1060.5 L 592.5 1061.5 L 593.5 1062.5 L 594.5 1062.5 L 595.5 1063.5 L 596.5 1064.5 L 597.5 1064.5 L 598.5 1065.5 L 599.5 1065.5 L 600.5 1066.5 L 601.5 1067.5 L 602.5 1067.5 L 603.5 1068.5 L 604.5 1068.5 L 605.5 1069.5 L 606.5 1069.5 L 607.5 1070.5 L 608.5 1071.5 L 609.5 1071.5 L 610.5 1072.5 L 611.5 1072.5 L 612.5 1073.5 L 613.5 1074.5 L 614.5 1074.5 L 615.5 1075.5 L 616.5 1075.5 L 617.5 1076.5 L 618.5 1077.5 L 619.5 1077.5 L 620.5 1077.5 L 621.5 1078.5 L 622.5 1078.5 L 623.5 1079.5 L 624.5 1079.5 L 625.5 1079.5 L 626.5 1080.5 L 627.5 1080.5 L 628.5 1080.5 L 629.5 1080.5 L 630.5 1080.5 L 631.5 1081.5 L 632.5 1081.5 L 633.5 1081.5 L 634.5 1081.5 L 635.5 1081.5 L 636.5 1081.5 L 637.5 1081.5 L 638.5 1081.5 L 639.5 1081.5 L 640.5 1081.5 L 641.5 1081.5 L 642.5 1081.5 L 643.5 1081.5 L 644.5 1081.5 L 645.5 1081.5 L 646.5 1081.5 L 647.5 1081.5 L 648.5 1080.5 L 649.5 1080.5 L 650.5 1080.5 L 651.5 1079.5 L 652.5 1079.5 L 653.5 1079.5 L 654.5 1078.5 L 655.5 1078.5 L 656.5 1078.5 L 657.5 1077.5 L 658.5 1077.5 L 659.5 1076.5 L 660.5 1076.5 L 661.5 1075.5 L 662.5 1075.5 L 663.5 1074.5 L 664.5 1073.5 L 665.5 1072.5 L 666.5 1071.5 L 667.5 1071.5 L 668.5 1070.5 L 669.5 1069.5 L 670.5 1068.5 L 670.5 1067.5 L 671.5 1066.5 L 672.5 1065.5 L 673.5 1064.5 L 673.5 1063.5 L 674.5 1062.5 L 675.5 1061.5 L 675.5 1060.5 L 676.5 1059.5 L 676.5 1058.5 L 677.5 1057.5 L 677.5 1056.5 L 678.5 1055.5 L 678.5 1054.5 L 678.5 1053.5 L 679.5 1052.5 L 679.5 1051.5 L 679.5 1050.5 L 679.5 1049.5 L 679.5 1048.5 L 680.5 1047.5 L 680.5 1046.5 L 680.5 1045.5 L 680.5 1044.5 L 680.5 1043.5 L 680.5 1042.5 L 680.5 1041.5 L 680.5 1040.5 L 680.5 1039.5 L 680.5 1038.5 L 680.5 1037.5 L 680.5 1036.5 L 680.5 1035.5 L 680.5 1034.5 L 680.5 1033.5 L 680.5 1032.5 L 680.5 1031.5 L 680.5 1030.5 L 680.5 1029.5 L 680.5 1028.5 L 680.5 1027.5 L 680.5 1026.5 L 680.5 1025.5 L 680.5 1024.5 L 680.5 1023.5 L 680.5 1022.5 L 680.5 1021.5 L 680.5 1020.5 L 680.5 1019.5 L 680.5 1018.5 L 680.5 1017.5 L 680.5 1016.5 L 680.5 1015.5 L 680.5 1014.5 L 680.5 1013.5 L 680.5 1012.5 L 680.5 1011.5 L 680.5 1010.5 L 680.5 1009.5 L 680.5 1008.5 L 680.5 1007.5 L 680.5 1006.5 L 680.5 1005.5 L 680.5 1004.5 L 680.5 1003.5 L 680.5 1002.5 L 680.5 1001.5 L 680.5 1000.5 L 680.5 999.5 L 680.5 998.5 L 680.5 997.5 L 680.5 996.5 L 680.5 995.5 L 680.5 994.5 L 680.5 993.5 L 680.5 992.5 L 680.5 991.5 L 680.5 990.5 L 680.5 989.5 L 680.5 988.5 L 680.5 987.5 L 680.5 986.5 L 680.5 985.5 L 680.5 984.5 L 680.5 983.5 L 680.5 982.5 L 680.5 981.5 L 680.5 980.5 L 680.5 979.5 L 680.5 978.5 L 680.5 977.5 L 680.5 976.5 L 680.5 975.5 L 680.5 974.5 L 680.5 973.5 L 680.5 972.5 L 680.5 971.5 L 680.5 970.5 L 680.5 969.5 L 680.5 968.5 L 680.5 967.5 L 680.5 966.5 L 680.5 965.5 L 680.5 964.5 L 680.5 963.5 L 680.5 962.5 L 680.5 961.5 L 680.5 960.5 L 680.5 959.5 L 680.5 958.5 L 680.5 957.5 L 680.5 956.5 L 680.5 955.5 L 680.5 954.5 L 680.5 953.5 L 680.5 952.5 L 680.5 951.5 L 680.5 950.5 L 680.5 949.5 L 680.5 948.5 L 680.5 947.5 L 680.5 946.5 L 680.5 945.5 L 680.5 944.5 L 680.5 943.5 L 680.5 942.5 L 680.5 941.5 L 680.5 940.5 L 680.5 939.5 L 680.5 938.5 L 680.5 937.5 L 680.5 936.5 L 680.5 935.5 L 680.5 934.5 L 680.5 933.5 L 680.5 932.5 L 680.5 931.5 L 680.5 930.5 L 680.5 929.5 L 680.5 928.5 L 680.5 927.5 L 680.5 926.5 L 680.5 925.5 L 680.5 924.5 L 680.5 923.5 L 680.5 922.5 L 680.5 921.5 L 680.5 920.5 L 680.5 919.5 L 680.5 918.5 L 680.5 917.5 L 680.5 916.5 L 680.5 915.5 L 680.5 914.5 L 680.5 913.5 L 680.5 912.5 L 680.5 911.5 L 680.5 910.5 L 680.5 909.5 L 680.5 908.5 L 680.5 907.5 L 680.5 906.5 L 680.5 905.5 L 680.5 904.5 L 680.5 903.5 L 680.5 902.5 L 680.5 901.5 L 680.5 900.5 L 680.5 899.5 L 680.5 898.5 L 680.5 897.5 L 680.5 896.5 L 680.5 895.5 L 680.5 894.5 L 680.5 893.5 L 680.5 892.5 L 680.5 891.5 L 680.5 890.5 L 680.5 889.5 L 680.5 888.5 L 680.5 887.5 L 680.5 886.5 L 680.5 885.5 L 680.5 884.5 L 680.5 883.5 L 680.5 882.5 L 680.5 881.5 L 680.5 880.5 L 680.5 879.5 L 680.5 878.5 L 680.5 877.5 L 680.5 876.5 L 680.5 875.5 L 680.5 874.5 L 680.5 873.5 L 680.5 872.5 L 680.5 871.5 L 680.5 870.5 L 680.5 869.5 L 680.5 868.5 L 680.5 867.5 L 680.5 866.5 L 680.5 865.5 L 680.5 864.5 L 680.5 863.5 L 680.5 862.5 L 680.5 861.5 L 681.5 860.5 L 681.5 859.5 L 681.5 858.5 L 681.5 857.5 L 682.5 856.5 L 682.5 855.5 L 682.5 854.5 L 683.5 853.5 L 683.5 852.5 L 684.5 851.5 L 684.5 850.5 L 684.5 849.5 L 685.5 848.5 L 686.5 847.5 L 687.5 846.5 L 687.5 845.5 L 688.5 844.5 L 689.5 843.5 L 690.5 842.5 L 691.5 841.5 L 692.5 840.5 L 693.5 839.5 L 694.5 838.5 L 695.5 837.5 L 696.5 837.5 L 697.5 836.5 L 698.5 836.5 L 699.5 835.5 L 700.5 835.5 L 701.5 834.5 L 702.5 833.5 L 703.5 833.5 L 704.5 832.5 L 705.5 831.5 L 706.5 831.5 L 707.5 830.5 L 708.5 830.5 L 709.5 829.5 L 710.5 829.5 L 711.5 828.5 L 712.5 827.5 L 713.5 827.5 L 714.5 826.5 L 715.5 826.5 L 716.5 825.5 L 717.5 824.5 L 718.5 824.5 L 719.5 823.5 L 720.5 823.5 L 721.5 822.5 L 722.5 821.5 L 723.5 821.5 L 724.5 820.5 L 725.5 820.5 L 726.5 819.5 L 727.5 819.5 L 728.5 818.5 L 729.5 817.5 L 730.5 817.5 L 731.5 816.5 L 732.5 815.5 L 733.5 815.5 L 734.5 814.5 L 735.5 814.5 L 736.5 813.5 L 737.5 812.5 L 738.5 812.5 L 739.5 811.5 L 740.5 811.5 L 741.5 810.5 L 742.5 809.5 L 743.5 809.5 L 744.5 808.5 L 745.5 808.5 L 746.5 807.5 L 747.5 807.5 L 748.5 806.5 L 749.5 805.5 L 750.5 805.5 L 751.5 804.5 L 752.5 803.5 L 753.5 803.5 L 754.5 802.5 L 755.5 802.5 L 756.5 801.5 L 757.5 800.5 L 758.5 800.5 L 759.5 799.5 L 760.5 798.5 L 761.5 798.5 L 762.5 797.5 L 763.5 797.5 L 764.5 796.5 L 765.5 796.5 L 766.5 795.5 L 767.5 794.5 L 768.5 794.5 L 769.5 793.5 L 770.5 793.5 L 771.5 792.5 L 772.5 791.5 L 773.5 791.5 L 774.5 790.5 L 775.5 790.5 L 776.5 789.5 L 777.5 788.5 L 778.5 788.5 L 779.5 787.5 L 780.5 787.5 L 781.5 786.5 L 782.5 785.5 L 783.5 785.5 L 784.5 784.5 L 785.5 783.5 L 786.5 783.5 L 787.5 783.5 L 788.5 782.5 L 789.5 781.5 L 790.5 781.5 L 791.5 780.5 L 792.5 779.5 L 793.5 779.5 L 794.5 778.5 L 795.5 778.5 L 796.5 777.5 L 797.5 777.5 L 798.5 776.5 L 799.5 775.5 L 800.5 775.5 L 801.5 774.5 L 802.5 774.5 L 803.5 773.5 L 804.5 772.5 L 805.5 772.5 L 806.5 771.5 L 807.5 771.5 L 808.5 770.5 L 809.5 769.5 L 810.5 769.5 L 811.5 768.5 L 812.5 767.5 L 813.5 767.5 L 814.5 766.5 L 815.5 766.5 L 816.5 765.5 L 817.5 765.5 L 818.5 764.5 L 819.5 763.5 L 820.5 763.5 L 821.5 762.5 L 822.5 762.5 L 823.5 761.5 L 824.5 760.5 L 825.5 760.5 L 826.5 759.5 L 827.5 759.5 L 828.5 758.5 L 829.5 757.5 L 830.5 757.5 L 831.5 756.5 L 832.5 755.5 L 833.5 755.5 L 834.5 754.5 L 835.5 754.5 L 836.5 753.5 L 837.5 752.5 L 838.5 752.5 L 839.5 751.5 L 840.5 750.5 L 841.5 750.5 L 842.5 749.5 L 843.5 749.5 L 844.5 748.5 L 845.5 748.5 L 846.5 747.5 L 847.5 746.5 L 848.5 746.5 L 849.5 745.5 L 850.5 745.5 L 851.5 744.5 L 852.5 743.5 L 853.5 743.5 L 854.5 742.5 L 855.5 742.5 L 856.5 741.5 L 857.5 740.5 L 858.5 740.5 L 859.5 739.5 L 860.5 739.5 L 861.5 738.5 L 862.5 737.5 L 863.5 737.5 L 864.5 736.5 L 865.5 735.5 L 866.5 735.5 L 867.5 734.5 L 868.5 734.5 L 869.5 733.5 L 870.5 733.5 L 871.5 732.5 L 872.5 731.5 L 873.5 731.5 L 874.5 730.5 L 875.5 729.5 L 876.5 729.5 L 877.5 728.5 L 878.5 728.5 L 879.5 727.5 L 880.5 727.5 L 881.5 726.5 L 882.5 726.5 L 883.5 725.5 L 884.5 724.5 L 885.5 724.5 L 886.5 723.5 L 887.5 723.5 L 888.5 722.5 L 889.5 721.5 L 890.5 721.5 L 891.5 720.5 L 892.5 719.5 L 893.5 719.5 L 894.5 718.5 L 895.5 717.5 L 896.5 717.5 L 897.5 716.5 L 898.5 715.5 L 899.5 715.5 L 900.5 714.5 L 901.5 713.5 L 902.5 712.5 L 903.5 711.5 L 904.5 710.5 L 905.5 709.5 L 905.5 708.5 L 906.5 707.5 L 907.5 706.5 L 908.5 705.5 L 908.5 704.5 L 909.5 703.5 L 909.5 702.5 L 910.5 701.5 L 910.5 700.5 L 911.5 699.5 L 911.5 698.5 L 912.5 697.5 L 912.5 696.5 L 912.5 695.5 L 913.5 694.5 L 913.5 693.5 L 913.5 692.5 L 913.5 691.5 L 914.5 690.5 L 914.5 689.5 L 914.5 688.5 L 914.5 687.5 L 914.5 686.5 L 914.5 685.5 L 914.5 684.5 L 914.5 683.5 L 914.5 682.5 L 914.5 681.5 L 914.5 680.5 L 914.5 679.5 L 914.5 678.5 L 914.5 677.5 L 914.5 676.5 L 914.5 675.5 L 914.5 674.5 L 914.5 673.5 L 914.5 672.5 L 914.5 671.5 L 914.5 670.5 L 914.5 669.5 L 914.5 668.5 L 914.5 667.5 L 914.5 666.5 L 914.5 665.5 L 914.5 664.5 L 914.5 663.5 L 914.5 662.5 L 914.5 661.5 L 914.5 660.5 L 914.5 659.5 L 914.5 658.5 L 914.5 657.5 L 914.5 656.5 L 914.5 655.5 L 914.5 654.5 L 914.5 653.5 L 914.5 652.5 L 914.5 651.5 L 914.5 650.5 L 914.5 649.5 L 914.5 648.5 L 914.5 647.5 L 914.5 646.5 L 914.5 645.5 L 914.5 644.5 L 914.5 643.5 L 914.5 642.5 L 914.5 641.5 L 914.5 640.5 L 914.5 639.5 L 914.5 638.5 L 914.5 637.5 L 914.5 636.5 L 914.5 635.5 L 914.5 634.5 L 914.5 633.5 L 914.5 632.5 L 914.5 631.5 L 914.5 630.5 L 914.5 629.5 L 914.5 628.5 L 914.5 627.5 L 914.5 626.5 L 914.5 625.5 L 914.5 624.5 L 914.5 623.5 L 914.5 622.5 L 914.5 621.5 L 914.5 620.5 L 914.5 619.5 L 914.5 618.5 L 914.5 617.5 L 914.5 616.5 L 914.5 615.5 L 914.5 614.5 L 914.5 613.5 L 914.5 612.5 L 914.5 611.5 L 914.5 610.5 L 914.5 609.5 L 914.5 608.5 L 914.5 607.5 L 914.5 606.5 L 914.5 605.5 L 914.5 604.5 L 914.5 603.5 L 914.5 602.5 L 914.5 601.5 L 914.5 600.5 L 914.5 599.5 L 914.5 598.5 L 914.5 597.5 L 914.5 596.5 L 914.5 595.5 L 914.5 594.5 L 914.5 593.5 L 914.5 592.5 L 914.5 591.5 L 914.5 590.5 L 914.5 589.5 L 914.5 588.5 L 914.5 587.5 L 914.5 586.5 L 914.5 585.5 L 914.5 584.5 L 914.5 583.5 L 914.5 582.5 L 914.5 581.5 L 914.5 580.5 L 914.5 579.5 L 914.5 578.5 L 914.5 577.5 L 914.5 576.5 L 914.5 575.5 L 914.5 574.5 L 914.5 573.5 L 914.5 572.5 L 914.5 571.5 L 914.5 570.5 L 914.5 569.5 L 914.5 568.5 L 914.5 567.5 L 914.5 566.5 L 914.5 565.5 L 914.5 564.5 L 914.5 563.5 L 914.5 562.5 L 914.5 561.5 L 914.5 560.5 L 914.5 559.5 L 914.5 558.5 L 914.5 557.5 L 914.5 556.5 L 914.5 555.5 L 914.5 554.5 L 914.5 553.5 L 914.5 552.5 L 914.5 551.5 L 914.5 550.5 L 914.5 549.5 L 914.5 548.5 L 914.5 547.5 L 914.5 546.5 L 914.5 545.5 L 914.5 544.5 L 914.5 543.5 L 914.5 542.5 L 915.5 541.5 L 915.5 540.5 L 915.5 539.5 L 915.5 538.5 L 915.5 537.5 L 915.5 536.5 L 915.5 535.5 L 916.5 534.5 L 916.5 533.5 L 917.5 532.5 L 918.5 531.5 L 919.5 530.5 L 920.5 529.5 L 921.5 528.5 L 922.5 528.5 L 923.5 527.5 L 924.5 527.5 L 925.5 527.5 L 926.5 527.5 L 927.5 527.5 L 928.5 527.5 L 929.5 527.5 L 930.5 527.5 L 931.5 527.5 L 932.5 528.5 L 933.5 528.5 L 934.5 529.5 L 935.5 529.5 L 936.5 530.5 L 937.5 531.5 L 938.5 531.5 L 939.5 532.5 L 940.5 532.5 L 941.5 533.5 L 942.5 533.5 L 943.5 534.5 L 944.5 535.5 L 945.5 535.5 L 946.5 536.5 L 947.5 537.5 L 948.5 537.5 L 949.5 538.5 L 950.5 538.5 L 951.5 539.5 L 952.5 539.5 L 953.5 540.5 L 954.5 541.5 L 955.5 541.5 L 956.5 542.5 L 957.5 543.5 L 958.5 543.5 L 959.5 544.5 L 960.5 545.5 L 961.5 546.5 L 962.5 547.5 L 963.5 548.5 L 964.5 549.5 L 964.5 550.5 L 965.5 551.5 L 966.5 552.5 L 967.5 553.5 L 968.5 554.5 L 968.5 555.5 L 969.5 556.5 L 969.5 557.5 L 970.5 558.5 L 970.5 559.5 L 971.5 560.5 L 971.5 561.5 L 971.5 562.5 L 972.5 563.5 L 972.5 564.5 L 972.5 565.5 L 972.5 566.5 L 973.5 567.5 L 973.5 568.5 L 973.5 569.5 L 973.5 570.5 L 973.5 571.5 L 973.5 572.5 L 973.5 573.5 L 973.5 574.5 L 973.5 575.5 L 973.5 576.5 L 973.5 577.5 L 973.5 578.5 L 973.5 579.5 L 973.5 580.5 L 973.5 581.5 L 973.5 582.5 L 973.5 583.5 L 973.5 584.5 L 973.5 585.5 L 973.5 586.5 L 973.5 587.5 L 973.5 588.5 L 973.5 589.5 L 973.5 590.5 L 973.5 591.5 L 973.5 592.5 L 973.5 593.5 L 973.5 594.5 L 973.5 595.5 L 973.5 596.5 L 973.5 597.5 L 973.5 598.5 L 973.5 599.5 L 973.5 600.5 L 973.5 601.5 L 973.5 602.5 L 973.5 603.5 L 973.5 604.5 L 973.5 605.5 L 973.5 606.5 L 973.5 607.5 L 973.5 608.5 L 973.5 609.5 L 973.5 610.5 L 973.5 611.5 L 973.5 612.5 L 973.5 613.5 L 973.5 614.5 L 973.5 615.5 L 973.5 616.5 L 973.5 617.5 L 973.5 618.5 L 973.5 619.5 L 973.5 620.5 L 973.5 621.5 L 973.5 622.5 L 973.5 623.5 L 973.5 624.5 L 973.5 625.5 L 973.5 626.5 L 973.5 627.5 L 973.5 628.5 L 973.5 629.5 L 973.5 630.5 L 973.5 631.5 L 973.5 632.5 L 973.5 633.5 L 973.5 634.5 L 973.5 635.5 L 973.5 636.5 L 973.5 637.5 L 973.5 638.5 L 973.5 639.5 L 973.5 640.5 L 973.5 641.5 L 973.5 642.5 L 973.5 643.5 L 973.5 644.5 L 973.5 645.5 L 973.5 646.5 L 973.5 647.5 L 973.5 648.5 L 973.5 649.5 L 973.5 650.5 L 973.5 651.5 L 973.5 652.5 L 973.5 653.5 L 973.5 654.5 L 973.5 655.5 L 973.5 656.5 L 973.5 657.5 L 973.5 658.5 L 973.5 659.5 L 973.5 660.5 L 973.5 661.5 L 973.5 662.5 L 973.5 663.5 L 973.5 664.5 L 973.5 665.5 L 973.5 666.5 L 973.5 667.5 L 973.5 668.5 L 973.5 669.5 L 973.5 670.5 L 973.5 671.5 L 973.5 672.5 L 973.5 673.5 L 973.5 674.5 L 973.5 675.5 L 973.5 676.5 L 973.5 677.5 L 973.5 678.5 L 973.5 679.5 L 973.5 680.5 L 973.5 681.5 L 973.5 682.5 L 973.5 683.5 L 973.5 684.5 L 973.5 685.5 L 973.5 686.5 L 973.5 687.5 L 973.5 688.5 L 973.5 689.5 L 973.5 690.5 L 973.5 691.5 L 973.5 692.5 L 973.5 693.5 L 973.5 694.5 L 973.5 695.5 L 973.5 696.5 L 973.5 697.5 L 973.5 698.5 L 973.5 699.5 L 973.5 700.5 L 973.5 701.5 L 973.5 702.5 L 973.5 703.5 L 973.5 704.5 L 973.5 705.5 L 973.5 706.5 L 973.5 707.5 L 973.5 708.5 L 973.5 709.5 L 973.5 710.5 L 973.5 711.5 L 973.5 712.5 L 973.5 713.5 L 973.5 714.5 L 973.5 715.5 L 973.5 716.5 L 973.5 717.5 L 973.5 718.5 L 973.5 719.5 L 973.5 720.5 L 973.5 721.5 L 973.5 722.5 L 973.5 723.5 L 973.5 724.5 L 973.5 725.5 L 973.5 726.5 L 973.5 727.5 L 973.5 728.5 L 973.5 729.5 L 973.5 730.5 L 973.5 731.5 L 973.5 732.5 L 973.5 733.5 L 973.5 734.5 L 973.5 735.5 L 973.5 736.5 L 973.5 737.5 L 973.5 738.5 L 973.5 739.5 L 973.5 740.5 L 973.5 741.5 L 973.5 742.5 L 973.5 743.5 L 973.5 744.5 L 973.5 745.5 L 973.5 746.5 L 973.5 747.5 L 973.5 748.5 L 973.5 749.5 L 973.5 750.5 L 973.5 751.5 L 973.5 752.5 L 973.5 753.5 L 973.5 754.5 L 973.5 755.5 L 973.5 756.5 L 973.5 757.5 L 973.5 758.5 L 973.5 759.5 L 973.5 760.5 L 973.5 761.5 L 973.5 762.5 L 973.5 763.5 L 973.5 764.5 L 973.5 765.5 L 973.5 766.5 L 973.5 767.5 L 973.5 768.5 L 973.5 769.5 L 973.5 770.5 L 973.5 771.5 L 973.5 772.5 L 973.5 773.5 L 973.5 774.5 L 973.5 775.5 L 973.5 776.5 L 973.5 777.5 L 973.5 778.5 L 973.5 779.5 L 973.5 780.5 L 973.5 781.5 L 973.5 782.5 L 973.5 783.5 L 973.5 784.5 L 973.5 785.5 L 973.5 786.5 L 973.5 787.5 L 973.5 788.5 L 973.5 789.5 L 973.5 790.5 L 973.5 791.5 L 973.5 792.5 L 973.5 793.5 L 973.5 794.5 L 973.5 795.5 L 973.5 796.5 L 973.5 797.5 L 973.5 798.5 L 973.5 799.5 L 973.5 800.5 L 973.5 801.5 L 973.5 802.5 L 973.5 803.5 L 973.5 804.5 L 973.5 805.5 L 973.5 806.5 L 973.5 807.5 L 973.5 808.5 L 973.5 809.5 L 973.5 810.5 L 973.5 811.5 L 973.5 812.5 L 973.5 813.5 L 973.5 814.5 L 973.5 815.5 L 973.5 816.5 L 973.5 817.5 L 973.5 818.5 L 973.5 819.5 L 973.5 820.5 L 973.5 821.5 L 973.5 822.5 L 973.5 823.5 L 973.5 824.5 L 973.5 825.5 L 973.5 826.5 L 973.5 827.5 L 973.5 828.5 L 973.5 829.5 L 973.5 830.5 L 973.5 831.5 L 973.5 832.5 L 973.5 833.5 L 973.5 834.5 L 973.5 835.5 L 973.5 836.5 L 973.5 837.5 L 973.5 838.5 L 973.5 839.5 L 973.5 840.5 L 973.5 841.5 L 973.5 842.5 L 973.5 843.5 L 973.5 844.5 L 973.5 845.5 L 973.5 846.5 L 973.5 847.5 L 973.5 848.5 L 973.5 849.5 L 973.5 850.5 L 973.5 851.5 L 973.5 852.5 L 973.5 853.5 L 973.5 854.5 L 973.5 855.5 L 973.5 856.5 L 973.5 857.5 L 973.5 858.5 L 973.5 859.5 L 973.5 860.5 L 973.5 861.5 L 973.5 862.5 L 973.5 863.5 L 973.5 864.5 L 973.5 865.5 L 973.5 866.5 L 973.5 867.5 L 973.5 868.5 L 973.5 869.5 L 973.5 870.5 L 973.5 871.5 L 973.5 872.5 L 973.5 873.5 L 973.5 874.5 L 973.5 875.5 L 973.5 876.5 L 973.5 877.5 L 973.5 878.5 L 973.5 879.5 L 973.5 880.5 L 973.5 881.5 L 973.5 882.5 L 973.5 883.5 L 973.5 884.5 L 973.5 885.5 L 973.5 886.5 L 973.5 887.5 L 973.5 888.5 L 973.5 889.5 L 973.5 890.5 L 973.5 891.5 L 973.5 892.5 L 973.5 893.5 L 973.5 894.5 L 973.5 895.5 L 973.5 896.5 L 973.5 897.5 L 973.5 898.5 L 973.5 899.5 L 973.5 900.5 L 973.5 901.5 L 973.5 902.5 L 973.5 903.5 L 973.5 904.5 L 973.5 905.5 L 973.5 906.5 L 973.5 907.5 L 973.5 908.5 L 973.5 909.5 L 973.5 910.5 L 973.5 911.5 L 973.5 912.5 L 973.5 913.5 L 973.5 914.5 L 973.5 915.5 L 973.5 916.5 L 973.5 917.5 L 973.5 918.5 L 973.5 919.5 L 973.5 920.5 L 973.5 921.5 L 973.5 922.5 L 973.5 923.5 L 973.5 924.5 L 973.5 925.5 L 973.5 926.5 L 973.5 927.5 L 973.5 928.5 L 973.5 929.5 L 973.5 930.5 L 973.5 931.5 L 973.5 932.5 L 973.5 933.5 L 973.5 934.5 L 972.5 935.5 L 972.5 936.5 L 972.5 937.5 L 972.5 938.5 L 971.5 939.5 L 971.5 940.5 L 971.5 941.5 L 970.5 942.5 L 970.5 943.5 L 969.5 944.5 L 969.5 945.5 L 968.5 946.5 L 968.5 947.5 L 967.5 948.5 L 967.5 949.5 L 966.5 950.5 L 965.5 951.5 L 964.5 952.5 L 963.5 953.5 L 962.5 954.5 L 962.5 955.5 L 961.5 956.5 L 960.5 956.5 L 959.5 957.5 L 958.5 958.5 L 957.5 959.5 L 956.5 960.5 L 955.5 960.5 L 954.5 961.5 L 953.5 962.5 L 952.5 962.5 L 951.5 963.5 L 950.5 963.5 L 949.5 964.5 L 948.5 965.5 L 947.5 965.5 L 946.5 966.5 L 945.5 966.5 L 944.5 967.5 L 943.5 968.5 L 942.5 968.5 L 941.5 969.5 L 940.5 969.5 L 939.5 970.5 L 938.5 970.5 L 937.5 971.5 L 936.5 972.5 L 935.5 972.5 L 934.5 972.5 L 933.5 973.5 L 932.5 974.5 L 931.5 974.5 L 930.5 974.5 L 929.5 975.5 L 928.5 975.5 L 927.5 975.5 L 926.5 975.5 L 925.5 975.5 L 924.5 974.5 L 923.5 974.5 L 922.5 974.5 L 921.5 973.5 L 920.5 973.5 L 919.5 972.5 L 918.5 971.5 L 917.5 970.5 L 917.5 969.5 L 916.5 968.5 L 916.5 967.5 L 915.5 966.5 L 915.5 965.5 L 915.5 964.5 L 915.5 963.5 L 915.5 962.5 L 914.5 961.5 L 914.5 960.5 L 914.5 959.5 L 914.5 958.5 L 914.5 957.5 L 914.5 956.5 L 914.5 955.5 L 914.5 954.5 L 914.5 953.5 L 914.5 952.5 L 914.5 951.5 L 914.5 950.5 L 914.5 949.5 L 914.5 948.5 L 914.5 947.5 L 914.5 946.5 L 914.5 945.5 L 914.5 944.5 L 914.5 943.5 L 914.5 942.5 L 914.5 941.5 L 914.5 940.5 L 914.5 939.5 L 914.5 938.5 L 914.5 937.5 L 914.5 936.5 L 914.5 935.5 L 914.5 934.5 L 914.5 933.5 L 914.5 932.5 L 914.5 931.5 L 914.5 930.5 L 914.5 929.5 L 914.5 928.5 L 914.5 927.5 L 914.5 926.5 L 914.5 925.5 L 914.5 924.5 L 914.5 923.5 L 914.5 922.5 L 914.5 921.5 L 914.5 920.5 L 914.5 919.5 L 914.5 918.5 L 914.5 917.5 L 914.5 916.5 L 914.5 915.5 L 914.5 914.5 L 914.5 913.5 L 914.5 912.5 L 914.5 911.5 L 914.5 910.5 L 914.5 909.5 L 914.5 908.5 L 914.5 907.5 L 914.5 906.5 L 914.5 905.5 L 914.5 904.5 L 914.5 903.5 L 914.5 902.5 L 914.5 901.5 L 914.5 900.5 L 914.5 899.5 L 914.5 898.5 L 914.5 897.5 L 914.5 896.5 L 914.5 895.5 L 914.5 894.5 L 914.5 893.5 L 914.5 892.5 L 914.5 891.5 L 914.5 890.5 L 914.5 889.5 L 914.5 888.5 L 914.5 887.5 L 914.5 886.5 L 914.5 885.5 L 914.5 884.5 L 914.5 883.5 L 914.5 882.5 L 914.5 881.5 L 914.5 880.5 L 914.5 879.5 L 914.5 878.5 L 914.5 877.5 L 914.5 876.5 L 914.5 875.5 L 914.5 874.5 L 914.5 873.5 L 914.5 872.5 L 914.5 871.5 L 914.5 870.5 L 914.5 869.5 L 914.5 868.5 L 914.5 867.5 L 914.5 866.5 L 914.5 865.5 L 914.5 864.5 L 914.5 863.5 L 914.5 862.5 L 914.5 861.5 L 914.5 860.5 L 914.5 859.5 L 914.5 858.5 L 914.5 857.5 L 914.5 856.5 L 914.5 855.5 L 914.5 854.5 L 914.5 853.5 L 914.5 852.5 L 914.5 851.5 L 914.5 850.5 L 914.5 849.5 L 914.5 848.5 L 914.5 847.5 L 914.5 846.5 L 914.5 845.5 L 914.5 844.5 L 914.5 843.5 L 914.5 842.5 L 914.5 841.5 L 914.5 840.5 L 914.5 839.5 L 914.5 838.5 L 914.5 837.5 L 914.5 836.5 L 914.5 835.5 L 914.5 834.5 L 914.5 833.5 L 914.5 832.5 L 914.5 831.5 L 914.5 830.5 L 914.5 829.5 L 914.5 828.5 L 914.5 827.5 L 914.5 826.5 L 914.5 825.5 L 914.5 824.5 L 914.5 823.5 L 914.5 822.5 L 914.5 821.5 L 914.5 820.5 L 914.5 819.5 L 914.5 818.5 L 914.5 817.5 L 914.5 816.5 L 914.5 815.5 L 914.5 814.5 L 914.5 813.5 L 914.5 812.5 L 914.5 811.5 L 914.5 810.5 L 914.5 809.5 L 914.5 808.5 L 914.5 807.5 L 914.5 806.5 L 914.5 805.5 L 914.5 804.5 L 914.5 803.5 L 914.5 802.5 L 914.5 801.5 L 914.5 800.5 L 914.5 799.5 L 914.5 798.5 L 914.5 797.5 L 914.5 796.5 L 913.5 795.5 L 913.5 794.5 L 912.5 793.5 L 911.5 792.5 L 910.5 792.5 L 909.5 791.5 L 908.5 791.5 L 907.5 791.5 L 906.5 791.5 L 905.5 791.5 L 904.5 791.5 L 903.5 791.5 L 902.5 791.5 L 901.5 792.5 L 900.5 792.5 L 899.5 793.5 L 898.5 793.5 L 897.5 794.5 L 896.5 795.5 L 895.5 795.5 L 894.5 796.5 L 893.5 796.5 L 892.5 797.5 L 891.5 797.5 L 890.5 798.5 L 889.5 798.5 L 888.5 799.5 L 887.5 800.5 L 886.5 800.5 L 885.5 801.5 L 884.5 802.5 L 883.5 802.5 L 882.5 803.5 L 881.5 804.5 L 880.5 804.5 L 879.5 805.5 L 878.5 805.5 L 877.5 806.5 L 876.5 806.5 L 875.5 807.5 L 874.5 808.5 L 873.5 808.5 L 872.5 809.5 L 871.5 809.5 L 870.5 810.5 L 869.5 811.5 L 868.5 811.5 L 867.5 812.5 L 866.5 812.5 L 865.5 813.5 L 864.5 814.5 L 863.5 814.5 L 862.5 815.5 L 861.5 816.5 L 860.5 816.5 L 859.5 816.5 L 858.5 817.5 L 858.5 818.5 L 857.5 819.5 L 857.5 820.5 L 857.5 821.5 L 857.5 822.5 L 857.5 823.5 L 857.5 824.5 L 857.5 825.5 L 857.5 826.5 L 857.5 827.5 L 857.5 828.5 L 857.5 829.5 L 857.5 830.5 L 857.5 831.5 L 857.5 832.5 L 857.5 833.5 L 857.5 834.5 L 857.5 835.5 L 857.5 836.5 L 857.5 837.5 L 857.5 838.5 L 857.5 839.5 L 857.5 840.5 L 857.5 841.5 L 857.5 842.5 L 857.5 843.5 L 857.5 844.5 L 857.5 845.5 L 857.5 846.5 L 857.5 847.5 L 857.5 848.5 L 857.5 849.5 L 857.5 850.5 L 857.5 851.5 L 857.5 852.5 L 857.5 853.5 L 857.5 854.5 L 857.5 855.5 L 857.5 856.5 L 857.5 857.5 L 857.5 858.5 L 857.5 859.5 L 857.5 860.5 L 857.5 861.5 L 857.5 862.5 L 857.5 863.5 L 857.5 864.5 L 857.5 865.5 L 857.5 866.5 L 857.5 867.5 L 857.5 868.5 L 857.5 869.5 L 857.5 870.5 L 857.5 871.5 L 857.5 872.5 L 857.5 873.5 L 857.5 874.5 L 857.5 875.5 L 857.5 876.5 L 857.5 877.5 L 857.5 878.5 L 857.5 879.5 L 857.5 880.5 L 857.5 881.5 L 857.5 882.5 L 857.5 883.5 L 857.5 884.5 L 857.5 885.5 L 857.5 886.5 L 857.5 887.5 L 857.5 888.5 L 857.5 889.5 L 857.5 890.5 L 857.5 891.5 L 857.5 892.5 L 857.5 893.5 L 857.5 894.5 L 857.5 895.5 L 857.5 896.5 L 857.5 897.5 L 857.5 898.5 L 857.5 899.5 L 857.5 900.5 L 857.5 901.5 L 857.5 902.5 L 857.5 903.5 L 857.5 904.5 L 857.5 905.5 L 857.5 906.5 L 857.5 907.5 L 857.5 908.5 L 857.5 909.5 L 857.5 910.5 L 857.5 911.5 L 857.5 912.5 L 857.5 913.5 L 857.5 914.5 L 857.5 915.5 L 857.5 916.5 L 857.5 917.5 L 857.5 918.5 L 857.5 919.5 L 857.5 920.5 L 857.5 921.5 L 857.5 922.5 L 857.5 923.5 L 857.5 924.5 L 857.5 925.5 L 857.5 926.5 L 857.5 927.5 L 857.5 928.5 L 857.5 929.5 L 857.5 930.5 L 857.5 931.5 L 857.5 932.5 L 857.5 933.5 L 857.5 934.5 L 857.5 935.5 L 857.5 936.5 L 857.5 937.5 L 857.5 938.5 L 857.5 939.5 L 857.5 940.5 L 857.5 941.5 L 857.5 942.5 L 857.5 943.5 L 857.5 944.5 L 857.5 945.5 L 857.5 946.5 L 857.5 947.5 L 857.5 948.5 L 857.5 949.5 L 857.5 950.5 L 857.5 951.5 L 857.5 952.5 L 857.5 953.5 L 857.5 954.5 L 857.5 955.5 L 857.5 956.5 L 857.5 957.5 L 857.5 958.5 L 857.5 959.5 L 857.5 960.5 L 857.5 961.5 L 857.5 962.5 L 857.5 963.5 L 857.5 964.5 L 857.5 965.5 L 857.5 966.5 L 857.5 967.5 L 857.5 968.5 L 857.5 969.5 L 857.5 970.5 L 857.5 971.5 L 857.5 972.5 L 857.5 973.5 L 857.5 974.5 L 857.5 975.5 L 857.5 976.5 L 857.5 977.5 L 857.5 978.5 L 857.5 979.5 L 857.5 980.5 L 857.5 981.5 L 857.5 982.5 L 857.5 983.5 L 857.5 984.5 L 857.5 985.5 L 857.5 986.5 L 857.5 987.5 L 857.5 988.5 L 857.5 989.5 L 857.5 990.5 L 857.5 991.5 L 857.5 992.5 L 857.5 993.5 L 857.5 994.5 L 857.5 995.5 L 857.5 996.5 L 857.5 997.5 L 857.5 998.5 L 857.5 999.5 L 857.5 1000.5 L 857.5 1001.5 L 857.5 1002.5 L 857.5 1003.5 L 857.5 1004.5 L 857.5 1005.5 L 857.5 1006.5 L 857.5 1007.5 L 857.5 1008.5 L 857.5 1009.5 L 857.5 1010.5 L 857.5 1011.5 L 857.5 1012.5 L 857.5 1013.5 L 857.5 1014.5 L 857.5 1015.5 L 857.5 1016.5 L 857.5 1017.5 L 857.5 1018.5 L 857.5 1019.5 L 857.5 1020.5 L 857.5 1021.5 L 857.5 1022.5 L 857.5 1023.5 L 857.5 1024.5 L 857.5 1025.5 L 857.5 1026.5 L 857.5 1027.5 L 857.5 1028.5 L 857.5 1029.5 L 857.5 1030.5 L 857.5 1031.5 L 857.5 1032.5 L 857.5 1033.5 L 857.5 1034.5 L 857.5 1035.5 L 857.5 1036.5 L 857.5 1037.5 L 857.5 1038.5 L 857.5 1039.5 L 857.5 1040.5 L 857.5 1041.5 L 857.5 1042.5 L 857.5 1043.5 L 857.5 1044.5 L 857.5 1045.5 L 857.5 1046.5 L 857.5 1047.5 L 857.5 1048.5 L 857.5 1049.5 L 858.5 1050.5 L 858.5 1051.5 L 858.5 1052.5 L 858.5 1053.5 L 859.5 1054.5 L 859.5 1055.5 L 860.5 1056.5 L 860.5 1057.5 L 860.5 1058.5 L 861.5 1059.5 L 861.5 1060.5 L 862.5 1061.5 L 863.5 1062.5 L 863.5 1063.5 L 864.5 1064.5 L 865.5 1065.5 L 865.5 1066.5 L 866.5 1067.5 L 867.5 1068.5 L 868.5 1069.5 L 869.5 1070.5 L 870.5 1071.5 L 871.5 1072.5 L 872.5 1073.5 L 873.5 1074.5 L 874.5 1074.5 L 875.5 1075.5 L 876.5 1075.5 L 877.5 1076.5 L 878.5 1077.5 L 879.5 1077.5 L 880.5 1077.5 L 881.5 1078.5 L 882.5 1078.5 L 883.5 1079.5 L 884.5 1079.5 L 885.5 1079.5 L 886.5 1079.5 L 887.5 1080.5 L 888.5 1080.5 L 889.5 1080.5 L 890.5 1081.5 L 891.5 1081.5 L 892.5 1081.5 L 893.5 1081.5 L 894.5 1081.5 L 895.5 1081.5 L 896.5 1081.5 L 897.5 1081.5 L 898.5 1081.5 L 899.5 1081.5 L 900.5 1081.5 L 901.5 1081.5 L 902.5 1081.5 L 903.5 1081.5 L 904.5 1081.5 L 905.5 1081.5 L 906.5 1081.5 L 907.5 1080.5 L 908.5 1080.5 L 909.5 1080.5 L 910.5 1080.5 L 911.5 1080.5 L 912.5 1079.5 L 913.5 1079.5 L 914.5 1079.5 L 915.5 1078.5 L 916.5 1078.5 L 917.5 1077.5 L 918.5 1077.5 L 919.5 1076.5 L 920.5 1076.5 L 921.5 1075.5 L 922.5 1074.5 L 923.5 1074.5 L 924.5 1073.5 L 925.5 1073.5 L 926.5 1072.5 L 927.5 1072.5 L 928.5 1071.5 L 929.5 1070.5 L 930.5 1070.5 L 931.5 1069.5 L 932.5 1069.5 L 933.5 1068.5 L 934.5 1067.5 L 935.5 1067.5 L 936.5 1066.5 L 937.5 1066.5 L 938.5 1065.5 L 939.5 1065.5 L 940.5 1064.5 L 941.5 1063.5 L 942.5 1063.5 L 943.5 1062.5 L 944.5 1062.5 L 945.5 1061.5 L 946.5 1060.5 L 947.5 1060.5 L 948.5 1059.5 L 949.5 1059.5 L 950.5 1058.5 L 951.5 1058.5 L 952.5 1057.5 L 953.5 1056.5 L 954.5 1055.5 L 955.5 1055.5 L 956.5 1054.5 L 957.5 1054.5 L 958.5 1053.5 L 959.5 1053.5 L 960.5 1052.5 L 961.5 1051.5 L 962.5 1051.5 L 963.5 1050.5 L 964.5 1050.5 L 965.5 1049.5 L 966.5 1048.5 L 967.5 1048.5 L 968.5 1047.5 L 969.5 1047.5 L 970.5 1046.5 L 971.5 1045.5 L 972.5 1045.5 L 973.5 1044.5 L 974.5 1044.5 L 975.5 1043.5 L 976.5 1042.5 L 977.5 1042.5 L 978.5 1041.5 L 979.5 1041.5 L 980.5 1040.5 L 981.5 1039.5 L 982.5 1039.5 L 983.5 1038.5 L 984.5 1038.5 L 985.5 1037.5 L 986.5 1037.5 L 987.5 1036.5 L 988.5 1035.5 L 989.5 1035.5 L 990.5 1034.5 L 991.5 1033.5 L 992.5 1033.5 L 993.5 1032.5 L 994.5 1032.5 L 995.5 1031.5 L 996.5 1030.5 L 997.5 1030.5 L 998.5 1029.5 L 999.5 1029.5 L 1000.5 1028.5 L 1001.5 1027.5 L 1002.5 1027.5 L 1003.5 1026.5 L 1004.5 1026.5 L 1005.5 1025.5 L 1006.5 1025.5 L 1007.5 1024.5 L 1008.5 1023.5 L 1009.5 1023.5 L 1010.5 1022.5 L 1011.5 1022.5 L 1012.5 1021.5 L 1013.5 1020.5 L 1014.5 1020.5 L 1015.5 1019.5 L 1016.5 1019.5 L 1017.5 1018.5 L 1018.5 1017.5 L 1019.5 1017.5 L 1020.5 1016.5 L 1021.5 1016.5 L 1022.5 1015.5 L 1023.5 1014.5 L 1024.5 1014.5 L 1025.5 1013.5 L 1026.5 1013.5 L 1027.5 1012.5 L 1028.5 1012.5 L 1029.5 1011.5 L 1030.5 1010.5 L 1031.5 1010.5 L 1032.5 1009.5 L 1033.5 1008.5 L 1034.5 1007.5 L 1035.5 1007.5 L 1036.5 1006.5 L 1037.5 1005.5 L 1038.5 1004.5 L 1039.5 1004.5 L 1040.5 1003.5 L 1041.5 1002.5 L 1041.5 1001.5 L 1042.5 1000.5 L 1043.5 999.5 L 1044.5 998.5 L 1045.5 997.5 L 1046.5 996.5 L 1046.5 995.5 L 1047.5 994.5 L 1048.5 993.5 L 1048.5 992.5 L 1049.5 991.5 L 1049.5 990.5 L 1050.5 989.5 L 1051.5 988.5 L 1051.5 987.5 L 1052.5 986.5 L 1052.5 985.5 L 1053.5 984.5 L 1053.5 983.5 L 1053.5 982.5 L 1054.5 981.5 L 1054.5 980.5 L 1055.5 979.5 L 1055.5 978.5 L 1055.5 977.5 L 1055.5 976.5 L 1056.5 975.5 L 1056.5 974.5 L 1057.5 973.5 L 1057.5 972.5 L 1057.5 971.5 L 1057.5 970.5 L 1057.5 969.5 L 1057.5 968.5 L 1057.5 967.5 L 1057.5 966.5 L 1057.5 965.5 L 1057.5 964.5 L 1058.5 963.5 L 1058.5 962.5 L 1058.5 961.5 L 1058.5 960.5 L 1058.5 959.5 L 1058.5 958.5 L 1058.5 957.5 L 1058.5 956.5 L 1058.5 955.5 L 1058.5 954.5 L 1058.5 953.5 L 1058.5 952.5 L 1058.5 951.5 L 1058.5 950.5 L 1058.5 949.5 L 1058.5 948.5 L 1058.5 947.5 L 1058.5 946.5 L 1058.5 945.5 L 1058.5 944.5 L 1058.5 943.5 L 1058.5 942.5 L 1058.5 941.5 L 1058.5 940.5 L 1058.5 939.5 L 1058.5 938.5 L 1058.5 937.5 L 1058.5 936.5 L 1058.5 935.5 L 1058.5 934.5 L 1058.5 933.5 L 1058.5 932.5 L 1058.5 931.5 L 1058.5 930.5 L 1058.5 929.5 L 1058.5 928.5 L 1058.5 927.5 L 1058.5 926.5 L 1058.5 925.5 L 1058.5 924.5 L 1058.5 923.5 L 1058.5 922.5 L 1058.5 921.5 L 1058.5 920.5 L 1058.5 919.5 L 1058.5 918.5 L 1058.5 917.5 L 1058.5 916.5 L 1058.5 915.5 L 1058.5 914.5 L 1058.5 913.5 L 1058.5 912.5 L 1058.5 911.5 L 1058.5 910.5 L 1058.5 909.5 L 1058.5 908.5 L 1058.5 907.5 L 1058.5 906.5 L 1058.5 905.5 L 1058.5 904.5 L 1058.5 903.5 L 1058.5 902.5 L 1058.5 901.5 L 1058.5 900.5 L 1058.5 899.5 L 1058.5 898.5 L 1058.5 897.5 L 1058.5 896.5 L 1058.5 895.5 L 1058.5 894.5 L 1058.5 893.5 L 1058.5 892.5 L 1058.5 891.5 L 1058.5 890.5 L 1058.5 889.5 L 1058.5 888.5 L 1058.5 887.5 L 1058.5 886.5 L 1058.5 885.5 L 1058.5 884.5 L 1058.5 883.5 L 1058.5 882.5 L 1058.5 881.5 L 1058.5 880.5 L 1058.5 879.5 L 1058.5 878.5 L 1058.5 877.5 L 1058.5 876.5 L 1058.5 875.5 L 1058.5 874.5 L 1058.5 873.5 L 1058.5 872.5 L 1058.5 871.5 L 1058.5 870.5 L 1058.5 869.5 L 1058.5 868.5 L 1058.5 867.5 L 1058.5 866.5 L 1058.5 865.5 L 1058.5 864.5 L 1058.5 863.5 L 1058.5 862.5 L 1058.5 861.5 L 1058.5 860.5 L 1058.5 859.5 L 1058.5 858.5 L 1058.5 857.5 L 1058.5 856.5 L 1058.5 855.5 L 1058.5 854.5 L 1058.5 853.5 L 1058.5 852.5 L 1058.5 851.5 L 1058.5 850.5 L 1058.5 849.5 L 1058.5 848.5 L 1058.5 847.5 L 1058.5 846.5 L 1058.5 845.5 L 1058.5 844.5 L 1058.5 843.5 L 1058.5 842.5 L 1058.5 841.5 L 1058.5 840.5 L 1058.5 839.5 L 1058.5 838.5 L 1058.5 837.5 L 1058.5 836.5 L 1058.5 835.5 L 1058.5 834.5 L 1058.5 833.5 L 1058.5 832.5 L 1058.5 831.5 L 1058.5 830.5 L 1058.5 829.5 L 1058.5 828.5 L 1058.5 827.5 L 1058.5 826.5 L 1058.5 825.5 L 1058.5 824.5 L 1058.5 823.5 L 1058.5 822.5 L 1058.5 821.5 L 1058.5 820.5 L 1058.5 819.5 L 1058.5 818.5 L 1058.5 817.5 L 1058.5 816.5 L 1058.5 815.5 L 1058.5 814.5 L 1058.5 813.5 L 1058.5 812.5 L 1058.5 811.5 L 1058.5 810.5 L 1058.5 809.5 L 1058.5 808.5 L 1058.5 807.5 L 1058.5 806.5 L 1058.5 805.5 L 1058.5 804.5 L 1058.5 803.5 L 1058.5 802.5 L 1058.5 801.5 L 1058.5 800.5 L 1058.5 799.5 L 1058.5 798.5 L 1058.5 797.5 L 1058.5 796.5 L 1058.5 795.5 L 1058.5 794.5 L 1058.5 793.5 L 1058.5 792.5 L 1058.5 791.5 L 1058.5 790.5 L 1058.5 789.5 L 1058.5 788.5 L 1058.5 787.5 L 1058.5 786.5 L 1058.5 785.5 L 1058.5 784.5 L 1058.5 783.5 L 1058.5 782.5 L 1058.5 781.5 L 1058.5 780.5 L 1058.5 779.5 L 1058.5 778.5 L 1058.5 777.5 L 1058.5 776.5 L 1058.5 775.5 L 1058.5 774.5 L 1058.5 773.5 L 1058.5 772.5 L 1058.5 771.5 L 1058.5 770.5 L 1058.5 769.5 L 1058.5 768.5 L 1058.5 767.5 L 1058.5 766.5 L 1058.5 765.5 L 1058.5 764.5 L 1058.5 763.5 L 1058.5 762.5 L 1058.5 761.5 L 1058.5 760.5 L 1058.5 759.5 L 1058.5 758.5 L 1058.5 757.5 L 1058.5 756.5 L 1058.5 755.5 L 1058.5 754.5 L 1058.5 753.5 L 1058.5 752.5 L 1058.5 751.5 L 1058.5 750.5 L 1058.5 749.5 L 1058.5 748.5 L 1058.5 747.5 L 1058.5 746.5 L 1058.5 745.5 L 1058.5 744.5 L 1058.5 743.5 L 1058.5 742.5 L 1058.5 741.5 L 1058.5 740.5 L 1058.5 739.5 L 1058.5 738.5 L 1058.5 737.5 L 1058.5 736.5 L 1058.5 735.5 L 1058.5 734.5 L 1058.5 733.5 L 1058.5 732.5 L 1058.5 731.5 L 1058.5 730.5 L 1058.5 729.5 L 1058.5 728.5 L 1058.5 727.5 L 1058.5 726.5 L 1058.5 725.5 L 1058.5 724.5 L 1058.5 723.5 L 1058.5 722.5 L 1058.5 721.5 L 1058.5 720.5 L 1058.5 719.5 L 1058.5 718.5 L 1058.5 717.5 L 1058.5 716.5 L 1058.5 715.5 L 1058.5 714.5 L 1058.5 713.5 L 1058.5 712.5 L 1058.5 711.5 L 1058.5 710.5 L 1058.5 709.5 L 1058.5 708.5 L 1058.5 707.5 L 1058.5 706.5 L 1058.5 705.5 L 1058.5 704.5 L 1058.5 703.5 L 1058.5 702.5 L 1058.5 701.5 L 1058.5 700.5 L 1058.5 699.5 L 1058.5 698.5 L 1058.5 697.5 L 1058.5 696.5 L 1058.5 695.5 L 1058.5 694.5 L 1058.5 693.5 L 1058.5 692.5 L 1058.5 691.5 L 1058.5 690.5 L 1058.5 689.5 L 1058.5 688.5 L 1058.5 687.5 L 1058.5 686.5 L 1058.5 685.5 L 1058.5 684.5 L 1058.5 683.5 L 1058.5 682.5 L 1058.5 681.5 L 1058.5 680.5 L 1058.5 679.5 L 1058.5 678.5 L 1058.5 677.5 L 1058.5 676.5 L 1058.5 675.5 L 1058.5 674.5 L 1058.5 673.5 L 1058.5 672.5 L 1058.5 671.5 L 1058.5 670.5 L 1058.5 669.5 L 1058.5 668.5 L 1058.5 667.5 L 1058.5 666.5 L 1058.5 665.5 L 1058.5 664.5 L 1058.5 663.5 L 1058.5 662.5 L 1058.5 661.5 L 1058.5 660.5 L 1058.5 659.5 L 1058.5 658.5 L 1058.5 657.5 L 1058.5 656.5 L 1058.5 655.5 L 1058.5 654.5 L 1058.5 653.5 L 1058.5 652.5 L 1058.5 651.5 L 1058.5 650.5 L 1058.5 649.5 L 1058.5 648.5 L 1058.5 647.5 L 1058.5 646.5 L 1058.5 645.5 L 1058.5 644.5 L 1058.5 643.5 L 1058.5 642.5 L 1058.5 641.5 L 1058.5 640.5 L 1058.5 639.5 L 1058.5 638.5 L 1058.5 637.5 L 1058.5 636.5 L 1058.5 635.5 L 1058.5 634.5 L 1058.5 633.5 L 1058.5 632.5 L 1058.5 631.5 L 1058.5 630.5 L 1058.5 629.5 L 1058.5 628.5 L 1058.5 627.5 L 1058.5 626.5 L 1058.5 625.5 L 1058.5 624.5 L 1058.5 623.5 L 1058.5 622.5 L 1058.5 621.5 L 1058.5 620.5 L 1058.5 619.5 L 1058.5 618.5 L 1058.5 617.5 L 1058.5 616.5 L 1058.5 615.5 L 1058.5 614.5 L 1058.5 613.5 L 1058.5 612.5 L 1058.5 611.5 L 1058.5 610.5 L 1058.5 609.5 L 1058.5 608.5 L 1058.5 607.5 L 1058.5 606.5 L 1058.5 605.5 L 1058.5 604.5 L 1058.5 603.5 L 1058.5 602.5 L 1058.5 601.5 L 1058.5 600.5 L 1058.5 599.5 L 1058.5 598.5 L 1058.5 597.5 L 1058.5 596.5 L 1058.5 595.5 L 1058.5 594.5 L 1058.5 593.5 L 1058.5 592.5 L 1058.5 591.5 L 1058.5 590.5 L 1058.5 589.5 L 1058.5 588.5 L 1058.5 587.5 L 1058.5 586.5 L 1058.5 585.5 L 1058.5 584.5 L 1058.5 583.5 L 1058.5 582.5 L 1058.5 581.5 L 1058.5 580.5 L 1058.5 579.5 L 1058.5 578.5 L 1058.5 577.5 L 1058.5 576.5 L 1058.5 575.5 L 1058.5 574.5 L 1058.5 573.5 L 1058.5 572.5 L 1058.5 571.5 L 1058.5 570.5 L 1058.5 569.5 L 1058.5 568.5 L 1058.5 567.5 L 1058.5 566.5 L 1058.5 565.5 L 1058.5 564.5 L 1058.5 563.5 L 1058.5 562.5 L 1058.5 561.5 L 1058.5 560.5 L 1058.5 559.5 L 1058.5 558.5 L 1058.5 557.5 L 1058.5 556.5 L 1058.5 555.5 L 1058.5 554.5 L 1058.5 553.5 L 1058.5 552.5 L 1058.5 551.5 L 1058.5 550.5 L 1058.5 549.5 L 1058.5 548.5 L 1058.5 547.5 L 1058.5 546.5 L 1058.5 545.5 L 1058.5 544.5 L 1058.5 543.5 L 1058.5 542.5 L 1058.5 541.5 L 1058.5 540.5 L 1058.5 539.5 L 1058.5 538.5 L 1057.5 537.5 L 1057.5 536.5 L 1057.5 535.5 L 1057.5 534.5 L 1057.5 533.5 L 1057.5 532.5 L 1057.5 531.5 L 1057.5 530.5 L 1057.5 529.5 L 1056.5 528.5 L 1056.5 527.5 L 1056.5 526.5 L 1055.5 525.5 L 1055.5 524.5 L 1055.5 523.5 L 1055.5 522.5 L 1054.5 521.5 L 1054.5 520.5 L 1053.5 519.5 L 1053.5 518.5 L 1053.5 517.5 L 1052.5 516.5 L 1052.5 515.5 L 1051.5 514.5 L 1051.5 513.5 L 1050.5 512.5 L 1050.5 511.5 L 1049.5 510.5 L 1049.5 509.5 L 1048.5 508.5 L 1047.5 507.5 L 1046.5 506.5 L 1046.5 505.5 L 1045.5 504.5 L 1044.5 503.5 L 1043.5 502.5 L 1043.5 501.5 L 1042.5 500.5 L 1041.5 499.5 L 1040.5 498.5 L 1039.5 497.5 L 1038.5 496.5 L 1037.5 496.5 L 1036.5 495.5 L 1035.5 494.5 L 1034.5 493.5 L 1033.5 492.5 L 1032.5 492.5 L 1031.5 491.5 L 1030.5 491.5 L 1029.5 490.5 L 1028.5 489.5 L 1027.5 489.5 L 1026.5 488.5 L 1025.5 488.5 L 1024.5 487.5 L 1023.5 486.5 L 1022.5 486.5 L 1021.5 485.5 L 1020.5 485.5 L 1019.5 484.5 L 1018.5 484.5 L 1017.5 483.5 L 1016.5 482.5 L 1015.5 482.5 L 1014.5 481.5 L 1013.5 480.5 L 1012.5 480.5 L 1011.5 479.5 L 1010.5 479.5 L 1009.5 478.5 L 1008.5 477.5 L 1007.5 477.5 L 1006.5 476.5 L 1005.5 476.5 L 1004.5 475.5 L 1003.5 475.5 L 1002.5 474.5 L 1001.5 473.5 L 1000.5 473.5 L 999.5 472.5 L 998.5 472.5 L 997.5 471.5 L 996.5 470.5 L 995.5 470.5 L 994.5 469.5 L 993.5 469.5 L 992.5 468.5 L 991.5 467.5 L 990.5 467.5 L 989.5 466.5 L 988.5 465.5 L 987.5 465.5 L 986.5 464.5 L 985.5 464.5 L 984.5 463.5 L 983.5 462.5 L 982.5 462.5 L 981.5 461.5 L 980.5 461.5 L 979.5 460.5 L 978.5 460.5 L 977.5 459.5 L 976.5 459.5 L 975.5 458.5 L 974.5 457.5 L 973.5 457.5 L 972.5 456.5 L 971.5 455.5 L 970.5 455.5 L 969.5 454.5 L 968.5 454.5 L 967.5 453.5 L 966.5 453.5 L 965.5 452.5 L 964.5 451.5 L 963.5 451.5 L 962.5 450.5 L 961.5 449.5 L 960.5 449.5 L 959.5 448.5 L 958.5 448.5 L 957.5 447.5 L 956.5 447.5 L 955.5 446.5 L 954.5 445.5 L 953.5 445.5 L 952.5 444.5 L 951.5 444.5 L 950.5 443.5 L 949.5 442.5 L 948.5 442.5 L 947.5 441.5 L 946.5 441.5 L 945.5 440.5 L 944.5 440.5 L 943.5 439.5 L 942.5 438.5 L 941.5 438.5 L 940.5 437.5 L 939.5 436.5 L 938.5 436.5 L 937.5 435.5 L 936.5 435.5 L 935.5 434.5 L 934.5 434.5 L 933.5 433.5 L 932.5 432.5 L 931.5 432.5 L 930.5 431.5 L 929.5 431.5 L 928.5 430.5 L 927.5 429.5 L 926.5 429.5 L 925.5 428.5 L 924.5 428.5 L 923.5 427.5 L 922.5 426.5 L 921.5 426.5 L 920.5 425.5 L 919.5 425.5 L 918.5 424.5 L 917.5 424.5 L 916.5 424.5 L 915.5 423.5 L 914.5 423.5 L 913.5 422.5 L 912.5 422.5 L 911.5 422.5 L 910.5 422.5 L 909.5 421.5 L 908.5 421.5 L 907.5 421.5 L 906.5 421.5 L 905.5 420.5 L 904.5 420.5 L 903.5 420.5 L 902.5 420.5 L 901.5 420.5 L 900.5 420.5 L 899.5 420.5 L 898.5 420.5 L 897.5 420.5 L 896.5 420.5 L 895.5 420.5 L 894.5 420.5 L 893.5 420.5 L 892.5 420.5 L 891.5 421.5 L 890.5 421.5 L 889.5 421.5 L 888.5 421.5 L 887.5 422.5 L 886.5 422.5 L 885.5 422.5 L 884.5 422.5 L 883.5 423.5 L 882.5 423.5 L 881.5 424.5 L 880.5 424.5 L 879.5 425.5 L 878.5 425.5 L 877.5 426.5 L 876.5 426.5 L 875.5 427.5 L 874.5 428.5 L 873.5 428.5 L 872.5 429.5 L 871.5 430.5 L 870.5 431.5 L 869.5 432.5 L 868.5 433.5 L 867.5 434.5 L 866.5 435.5 L 865.5 436.5 L 864.5 437.5 L 864.5 438.5 L 863.5 439.5 L 862.5 440.5 L 862.5 441.5 L 861.5 442.5 L 861.5 443.5 L 860.5 444.5 L 860.5 445.5 L 859.5 446.5 L 859.5 447.5 L 859.5 448.5 L 858.5 449.5 L 858.5 450.5 L 858.5 451.5 L 858.5 452.5 L 857.5 453.5 L 857.5 454.5 L 857.5 455.5 L 857.5 456.5 L 857.5 457.5 L 857.5 458.5 L 857.5 459.5 L 857.5 460.5 L 857.5 461.5 L 857.5 462.5 L 857.5 463.5 L 857.5 464.5 L 857.5 465.5 L 857.5 466.5 L 857.5 467.5 L 857.5 468.5 L 857.5 469.5 L 857.5 470.5 L 857.5 471.5 L 857.5 472.5 L 857.5 473.5 L 857.5 474.5 L 857.5 475.5 L 857.5 476.5 L 857.5 477.5 L 857.5 478.5 L 857.5 479.5 L 857.5 480.5 L 857.5 481.5 L 857.5 482.5 L 857.5 483.5 L 857.5 484.5 L 857.5 485.5 L 857.5 486.5 L 857.5 487.5 L 857.5 488.5 L 857.5 489.5 L 857.5 490.5 L 857.5 491.5 L 857.5 492.5 L 857.5 493.5 L 857.5 494.5 L 857.5 495.5 L 857.5 496.5 L 857.5 497.5 L 857.5 498.5 L 857.5 499.5 L 857.5 500.5 L 857.5 501.5 L 857.5 502.5 L 857.5 503.5 L 857.5 504.5 L 857.5 505.5 L 857.5 506.5 L 857.5 507.5 L 857.5 508.5 L 857.5 509.5 L 857.5 510.5 L 857.5 511.5 L 857.5 512.5 L 857.5 513.5 L 857.5 514.5 L 857.5 515.5 L 857.5 516.5 L 857.5 517.5 L 857.5 518.5 L 857.5 519.5 L 857.5 520.5 L 857.5 521.5 L 857.5 522.5 L 857.5 523.5 L 857.5 524.5 L 857.5 525.5 L 857.5 526.5 L 857.5 527.5 L 857.5 528.5 L 857.5 529.5 L 857.5 530.5 L 857.5 531.5 L 857.5 532.5 L 857.5 533.5 L 857.5 534.5 L 857.5 535.5 L 857.5 536.5 L 857.5 537.5 L 857.5 538.5 L 857.5 539.5 L 857.5 540.5 L 857.5 541.5 L 857.5 542.5 L 857.5 543.5 L 857.5 544.5 L 857.5 545.5 L 857.5 546.5 L 857.5 547.5 L 857.5 548.5 L 857.5 549.5 L 857.5 550.5 L 857.5 551.5 L 857.5 552.5 L 857.5 553.5 L 857.5 554.5 L 857.5 555.5 L 857.5 556.5 L 857.5 557.5 L 857.5 558.5 L 857.5 559.5 L 857.5 560.5 L 857.5 561.5 L 857.5 562.5 L 857.5 563.5 L 857.5 564.5 L 857.5 565.5 L 857.5 566.5 L 857.5 567.5 L 857.5 568.5 L 857.5 569.5 L 857.5 570.5 L 857.5 571.5 L 857.5 572.5 L 857.5 573.5 L 857.5 574.5 L 857.5 575.5 L 857.5 576.5 L 857.5 577.5 L 857.5 578.5 L 857.5 579.5 L 857.5 580.5 L 857.5 581.5 L 857.5 582.5 L 857.5 583.5 L 857.5 584.5 L 857.5 585.5 L 857.5 586.5 L 857.5 587.5 L 857.5 588.5 L 857.5 589.5 L 857.5 590.5 L 857.5 591.5 L 857.5 592.5 L 857.5 593.5 L 857.5 594.5 L 857.5 595.5 L 857.5 596.5 L 857.5 597.5 L 857.5 598.5 L 857.5 599.5 L 857.5 600.5 L 857.5 601.5 L 857.5 602.5 L 857.5 603.5 L 857.5 604.5 L 857.5 605.5 L 857.5 606.5 L 857.5 607.5 L 857.5 608.5 L 857.5 609.5 L 857.5 610.5 L 857.5 611.5 L 857.5 612.5 L 857.5 613.5 L 857.5 614.5 L 857.5 615.5 L 857.5 616.5 L 857.5 617.5 L 857.5 618.5 L 857.5 619.5 L 857.5 620.5 L 857.5 621.5 L 857.5 622.5 L 857.5 623.5 L 857.5 624.5 L 857.5 625.5 L 857.5 626.5 L 857.5 627.5 L 857.5 628.5 L 856.5 629.5 L 856.5 630.5 L 856.5 631.5 L 856.5 632.5 L 856.5 633.5 L 855.5 634.5 L 855.5 635.5 L 855.5 636.5 L 854.5 637.5 L 854.5 638.5 L 854.5 639.5 L 853.5 640.5 L 852.5 641.5 L 852.5 642.5 L 851.5 643.5 L 850.5 644.5 L 850.5 645.5 L 849.5 646.5 L 848.5 647.5 L 848.5 648.5 L 847.5 649.5 L 846.5 650.5 L 845.5 650.5 L 844.5 651.5 L 843.5 652.5 L 842.5 653.5 L 841.5 653.5 L 840.5 654.5 L 839.5 655.5 L 838.5 655.5 L 837.5 656.5 L 836.5 656.5 L 835.5 657.5 L 834.5 658.5 L 833.5 658.5 L 832.5 659.5 L 831.5 660.5 L 830.5 660.5 L 829.5 661.5 L 828.5 661.5 L 827.5 662.5 L 826.5 663.5 L 825.5 663.5 L 824.5 664.5 L 823.5 665.5 L 822.5 665.5 L 821.5 666.5 L 820.5 666.5 L 819.5 667.5 L 818.5 667.5 L 817.5 668.5 L 816.5 669.5 L 815.5 669.5 L 814.5 670.5 L 813.5 670.5 L 812.5 671.5 L 811.5 672.5 L 810.5 672.5 L 809.5 673.5 L 808.5 674.5 L 807.5 674.5 L 806.5 675.5 L 805.5 676.5 L 804.5 676.5 L 803.5 677.5 L 802.5 677.5 L 801.5 678.5 L 800.5 679.5 L 799.5 679.5 L 798.5 680.5 L 797.5 681.5 L 796.5 681.5 L 795.5 682.5 L 794.5 683.5 L 793.5 683.5 L 792.5 684.5 L 791.5 684.5 L 790.5 685.5 L 789.5 686.5 L 788.5 686.5 L 787.5 687.5 L 786.5 687.5 L 785.5 688.5 L 784.5 688.5 L 783.5 689.5 L 782.5 690.5 L 781.5 690.5 L 780.5 691.5 L 779.5 692.5 L 778.5 692.5 L 777.5 693.5 L 776.5 694.5 L 775.5 694.5 L 774.5 695.5 L 773.5 695.5 L 772.5 696.5 L 771.5 696.5 L 770.5 697.5 L 769.5 698.5 L 768.5 698.5 L 767.5 699.5 L 766.5 700.5 L 765.5 700.5 L 764.5 701.5 L 763.5 702.5 L 762.5 702.5 L 761.5 703.5 L 760.5 703.5 L 759.5 704.5 L 758.5 705.5 L 757.5 705.5 L 756.5 706.5 L 755.5 706.5 L 754.5 707.5 L 753.5 708.5 L 752.5 708.5 L 751.5 709.5 L 750.5 710.5 L 749.5 710.5 L 748.5 711.5 L 747.5 711.5 L 746.5 712.5 L 745.5 713.5 L 744.5 713.5 L 743.5 714.5 L 742.5 714.5 L 741.5 715.5 L 740.5 716.5 L 739.5 716.5 L 738.5 717.5 L 737.5 717.5 L 736.5 718.5 L 735.5 719.5 L 734.5 720.5 L 733.5 720.5 L 732.5 720.5 L 731.5 721.5 L 730.5 722.5 L 729.5 722.5 L 728.5 723.5 L 727.5 724.5 L 726.5 724.5 L 725.5 725.5 L 724.5 726.5 L 723.5 726.5 L 722.5 727.5 L 721.5 727.5 L 720.5 728.5 L 719.5 729.5 L 718.5 729.5 L 717.5 730.5 L 716.5 730.5 L 715.5 731.5 L 714.5 732.5 L 713.5 732.5 L 712.5 733.5 L 711.5 734.5 L 710.5 734.5 L 709.5 735.5 L 708.5 736.5 L 707.5 736.5 L 706.5 737.5 L 705.5 737.5 L 704.5 738.5 L 703.5 738.5 L 702.5 739.5 L 701.5 739.5 L 700.5 740.5 L 699.5 741.5 L 698.5 742.5 L 697.5 742.5 L 696.5 743.5 L 695.5 743.5 L 694.5 744.5 L 693.5 744.5 L 692.5 745.5 L 691.5 746.5 L 690.5 746.5 L 689.5 747.5 L 688.5 748.5 L 687.5 748.5 L 686.5 749.5 L 685.5 749.5 L 684.5 750.5 L 683.5 751.5 L 682.5 751.5 L 681.5 752.5 L 680.5 752.5 L 679.5 753.5 L 678.5 754.5 L 677.5 754.5 L 676.5 755.5 L 675.5 756.5 L 674.5 756.5 L 673.5 757.5 L 672.5 757.5 L 671.5 758.5 L 670.5 759.5 L 669.5 759.5 L 668.5 760.5 L 667.5 761.5 L 666.5 761.5 L 665.5 762.5 L 664.5 763.5 L 663.5 763.5 L 662.5 764.5 L 661.5 764.5 L 660.5 765.5 L 659.5 766.5 L 658.5 766.5 L 657.5 767.5 L 656.5 767.5 L 655.5 768.5 L 654.5 769.5 L 653.5 769.5 L 652.5 770.5 L 651.5 770.5 L 650.5 771.5 L 649.5 772.5 L 648.5 772.5 L 647.5 773.5 L 646.5 774.5 L 645.5 774.5 L 644.5 775.5 L 643.5 775.5 L 642.5 776.5 L 641.5 777.5 L 640.5 777.5 L 639.5 778.5 L 638.5 779.5 L 637.5 780.5 L 636.5 781.5 L 635.5 782.5 L 634.5 782.5 L 634.5 783.5 L 633.5 784.5 L 632.5 785.5 L 631.5 786.5 L 630.5 787.5 L 630.5 788.5 L 629.5 789.5 L 628.5 790.5 L 628.5 791.5 L 627.5 792.5 L 627.5 793.5 L 626.5 794.5 L 626.5 795.5 L 625.5 796.5 L 625.5 797.5 L 625.5 798.5 L 624.5 799.5 L 624.5 800.5 L 624.5 801.5 L 623.5 802.5 L 623.5 803.5 L 623.5 804.5 L 623.5 805.5 L 623.5 806.5 L 623.5 807.5 L 623.5 808.5 L 622.5 809.5 L 622.5 810.5 L 622.5 811.5 L 622.5 812.5 L 622.5 813.5 L 622.5 814.5 L 622.5 815.5 L 622.5 816.5 L 622.5 817.5 L 622.5 818.5 L 622.5 819.5 L 622.5 820.5 L 622.5 821.5 L 622.5 822.5 L 622.5 823.5 L 622.5 824.5 L 622.5 825.5 L 622.5 826.5 L 622.5 827.5 L 622.5 828.5 L 622.5 829.5 L 622.5 830.5 L 622.5 831.5 L 622.5 832.5 L 622.5 833.5 L 622.5 834.5 L 622.5 835.5 L 622.5 836.5 L 622.5 837.5 L 622.5 838.5 L 622.5 839.5 L 622.5 840.5 L 622.5 841.5 L 622.5 842.5 L 622.5 843.5 L 622.5 844.5 L 622.5 845.5 L 622.5 846.5 L 622.5 847.5 L 622.5 848.5 L 622.5 849.5 L 622.5 850.5 L 622.5 851.5 L 622.5 852.5 L 622.5 853.5 L 622.5 854.5 L 622.5 855.5 L 622.5 856.5 L 622.5 857.5 L 622.5 858.5 L 622.5 859.5 L 622.5 860.5 L 622.5 861.5 L 622.5 862.5 L 622.5 863.5 L 622.5 864.5 L 622.5 865.5 L 622.5 866.5 L 622.5 867.5 L 622.5 868.5 L 622.5 869.5 L 622.5 870.5 L 622.5 871.5 L 622.5 872.5 L 622.5 873.5 L 622.5 874.5 L 622.5 875.5 L 622.5 876.5 L 622.5 877.5 L 622.5 878.5 L 622.5 879.5 L 622.5 880.5 L 622.5 881.5 L 622.5 882.5 L 622.5 883.5 L 622.5 884.5 L 622.5 885.5 L 622.5 886.5 L 622.5 887.5 L 622.5 888.5 L 622.5 889.5 L 622.5 890.5 L 622.5 891.5 L 622.5 892.5 L 622.5 893.5 L 622.5 894.5 L 622.5 895.5 L 622.5 896.5 L 622.5 897.5 L 622.5 898.5 L 622.5 899.5 L 622.5 900.5 L 622.5 901.5 L 622.5 902.5 L 622.5 903.5 L 622.5 904.5 L 622.5 905.5 L 622.5 906.5 L 622.5 907.5 L 622.5 908.5 L 622.5 909.5 L 622.5 910.5 L 622.5 911.5 L 622.5 912.5 L 622.5 913.5 L 622.5 914.5 L 622.5 915.5 L 622.5 916.5 L 622.5 917.5 L 622.5 918.5 L 622.5 919.5 L 622.5 920.5 L 622.5 921.5 L 622.5 922.5 L 622.5 923.5 L 622.5 924.5 L 622.5 925.5 L 622.5 926.5 L 622.5 927.5 L 622.5 928.5 L 622.5 929.5 L 622.5 930.5 L 622.5 931.5 L 622.5 932.5 L 622.5 933.5 L 622.5 934.5 L 622.5 935.5 L 622.5 936.5 L 622.5 937.5 L 622.5 938.5 L 622.5 939.5 L 622.5 940.5 L 622.5 941.5 L 622.5 942.5 L 622.5 943.5 L 622.5 944.5 L 622.5 945.5 L 622.5 946.5 L 622.5 947.5 L 622.5 948.5 L 622.5 949.5 L 622.5 950.5 L 622.5 951.5 L 622.5 952.5 L 622.5 953.5 L 622.5 954.5 L 622.5 955.5 L 622.5 956.5 L 622.5 957.5 L 622.5 958.5 L 622.5 959.5 L 622.5 960.5 L 622.5 961.5 L 622.5 962.5 L 622.5 963.5 L 622.5 964.5 L 622.5 965.5 L 622.5 966.5 L 622.5 967.5 L 621.5 968.5 L 621.5 969.5 L 620.5 970.5 L 619.5 970.5 L 619.5 971.5 L 618.5 972.5 L 617.5 973.5 L 616.5 973.5 L 615.5 974.5 L 614.5 974.5 L 613.5 974.5 L 612.5 974.5 L 611.5 975.5 L 610.5 975.5 L 609.5 975.5 L 608.5 975.5 L 607.5 974.5 L 606.5 974.5 L 605.5 974.5 L 604.5 973.5 L 603.5 973.5 L 602.5 972.5 L 601.5 972.5 L 600.5 971.5 L 599.5 970.5 L 598.5 970.5 L 597.5 969.5 L 596.5 969.5 L 595.5 968.5 L 594.5 968.5 L 593.5 967.5 L 592.5 967.5 L 591.5 966.5 L 590.5 966.5 L 589.5 965.5 L 588.5 964.5 L 587.5 964.5 L 586.5 963.5 L 585.5 963.5 L 584.5 962.5 L 583.5 961.5 L 582.5 961.5 L 581.5 960.5 L 580.5 960.5 L 579.5 959.5 L 578.5 958.5 L 577.5 957.5 L 576.5 956.5 L 575.5 955.5 L 574.5 954.5 L 573.5 953.5 L 572.5 952.5 L 571.5 951.5 L 571.5 950.5 L 570.5 949.5 L 569.5 948.5 L 569.5 947.5 L 568.5 946.5 L 568.5 945.5 L 567.5 944.5 L 566.5 943.5 L 566.5 942.5 L 566.5 941.5 L 565.5 940.5 L 565.5 939.5 L 565.5 938.5 L 564.5 937.5 L 564.5 936.5 L 564.5 935.5 L 564.5 934.5 L 564.5 933.5 L 563.5 932.5 L 563.5 931.5 L 563.5 930.5 L 563.5 929.5 L 563.5 928.5 L 563.5 927.5 L 563.5 926.5 L 563.5 925.5 L 563.5 924.5 L 563.5 923.5 L 563.5 922.5 L 563.5 921.5 L 563.5 920.5 L 563.5 919.5 L 563.5 918.5 L 563.5 917.5 L 563.5 916.5 L 563.5 915.5 L 563.5 914.5 L 563.5 913.5 L 563.5 912.5 L 563.5 911.5 L 563.5 910.5 L 563.5 909.5 L 563.5 908.5 L 563.5 907.5 L 563.5 906.5 L 563.5 905.5 L 563.5 904.5 L 563.5 903.5 L 563.5 902.5 L 563.5 901.5 L 563.5 900.5 L 563.5 899.5 L 563.5 898.5 L 563.5 897.5 L 563.5 896.5 L 563.5 895.5 L 563.5 894.5 L 563.5 893.5 L 563.5 892.5 L 563.5 891.5 L 563.5 890.5 L 563.5 889.5 L 563.5 888.5 L 563.5 887.5 L 563.5 886.5 L 563.5 885.5 L 563.5 884.5 L 563.5 883.5 L 563.5 882.5 L 563.5 881.5 L 563.5 880.5 L 563.5 879.5 L 563.5 878.5 L 563.5 877.5 L 563.5 876.5 L 563.5 875.5 L 563.5 874.5 L 563.5 873.5 L 563.5 872.5 L 563.5 871.5 L 563.5 870.5 L 563.5 869.5 L 563.5 868.5 L 563.5 867.5 L 563.5 866.5 L 563.5 865.5 L 563.5 864.5 L 563.5 863.5 L 563.5 862.5 L 563.5 861.5 L 563.5 860.5 L 563.5 859.5 L 563.5 858.5 L 563.5 857.5 L 563.5 856.5 L 563.5 855.5 L 563.5 854.5 L 563.5 853.5 L 563.5 852.5 L 563.5 851.5 L 563.5 850.5 L 563.5 849.5 L 563.5 848.5 L 563.5 847.5 L 563.5 846.5 L 563.5 845.5 L 563.5 844.5 L 563.5 843.5 L 563.5 842.5 L 563.5 841.5 L 563.5 840.5 L 563.5 839.5 L 563.5 838.5 L 563.5 837.5 L 563.5 836.5 L 563.5 835.5 L 563.5 834.5 L 563.5 833.5 L 563.5 832.5 L 563.5 831.5 L 563.5 830.5 L 563.5 829.5 L 563.5 828.5 L 563.5 827.5 L 563.5 826.5 L 563.5 825.5 L 563.5 824.5 L 563.5 823.5 L 563.5 822.5 L 563.5 821.5 L 563.5 820.5 L 563.5 819.5 L 563.5 818.5 L 563.5 817.5 L 563.5 816.5 L 563.5 815.5 L 563.5 814.5 L 563.5 813.5 L 563.5 812.5 L 563.5 811.5 L 563.5 810.5 L 563.5 809.5 L 563.5 808.5 L 563.5 807.5 L 563.5 806.5 L 563.5 805.5 L 563.5 804.5 L 563.5 803.5 L 563.5 802.5 L 563.5 801.5 L 563.5 800.5 L 563.5 799.5 L 563.5 798.5 L 563.5 797.5 L 563.5 796.5 L 563.5 795.5 L 563.5 794.5 L 563.5 793.5 L 563.5 792.5 L 563.5 791.5 L 563.5 790.5 L 563.5 789.5 L 563.5 788.5 L 563.5 787.5 L 563.5 786.5 L 563.5 785.5 L 563.5 784.5 L 563.5 783.5 L 563.5 782.5 L 563.5 781.5 L 563.5 780.5 L 563.5 779.5 L 563.5 778.5 L 563.5 777.5 L 563.5 776.5 L 563.5 775.5 L 563.5 774.5 L 563.5 773.5 L 563.5 772.5 L 563.5 771.5 L 563.5 770.5 L 563.5 769.5 L 563.5 768.5 L 563.5 767.5 L 563.5 766.5 L 563.5 765.5 L 563.5 764.5 L 563.5 763.5 L 563.5 762.5 L 563.5 761.5 L 563.5 760.5 L 563.5 759.5 L 563.5 758.5 L 563.5 757.5 L 563.5 756.5 L 563.5 755.5 L 563.5 754.5 L 563.5 753.5 L 563.5 752.5 L 563.5 751.5 L 563.5 750.5 L 563.5 749.5 L 563.5 748.5 L 563.5 747.5 L 563.5 746.5 L 563.5 745.5 L 563.5 744.5 L 563.5 743.5 L 563.5 742.5 L 563.5 741.5 L 563.5 740.5 L 563.5 739.5 L 563.5 738.5 L 563.5 737.5 L 563.5 736.5 L 563.5 735.5 L 563.5 734.5 L 563.5 733.5 L 563.5 732.5 L 563.5 731.5 L 563.5 730.5 L 563.5 729.5 L 563.5 728.5 L 563.5 727.5 L 563.5 726.5 L 563.5 725.5 L 563.5 724.5 L 563.5 723.5 L 563.5 722.5 L 563.5 721.5 L 563.5 720.5 L 563.5 719.5 L 563.5 718.5 L 563.5 717.5 L 563.5 716.5 L 563.5 715.5 L 563.5 714.5 L 563.5 713.5 L 563.5 712.5 L 563.5 711.5 L 563.5 710.5 L 563.5 709.5 L 563.5 708.5 L 563.5 707.5 L 563.5 706.5 L 563.5 705.5 L 563.5 704.5 L 563.5 703.5 L 563.5 702.5 L 563.5 701.5 L 563.5 700.5 L 563.5 699.5 L 563.5 698.5 L 563.5 697.5 L 563.5 696.5 L 563.5 695.5 L 563.5 694.5 L 563.5 693.5 L 563.5 692.5 L 563.5 691.5 L 563.5 690.5 L 563.5 689.5 L 563.5 688.5 L 563.5 687.5 L 563.5 686.5 L 563.5 685.5 L 563.5 684.5 L 563.5 683.5 L 563.5 682.5 L 563.5 681.5 L 563.5 680.5 L 563.5 679.5 L 563.5 678.5 L 563.5 677.5 L 563.5 676.5 L 563.5 675.5 L 563.5 674.5 L 563.5 673.5 L 563.5 672.5 L 563.5 671.5 L 563.5 670.5 L 563.5 669.5 L 563.5 668.5 L 563.5 667.5 L 563.5 666.5 L 563.5 665.5 L 563.5 664.5 L 563.5 663.5 L 563.5 662.5 L 563.5 661.5 L 563.5 660.5 L 563.5 659.5 L 563.5 658.5 L 563.5 657.5 L 563.5 656.5 L 563.5 655.5 L 563.5 654.5 L 563.5 653.5 L 563.5 652.5 L 563.5 651.5 L 563.5 650.5 L 563.5 649.5 L 563.5 648.5 L 563.5 647.5 L 563.5 646.5 L 563.5 645.5 L 563.5 644.5 L 563.5 643.5 L 563.5 642.5 L 563.5 641.5 L 563.5 640.5 L 563.5 639.5 L 563.5 638.5 L 563.5 637.5 L 563.5 636.5 L 563.5 635.5 L 563.5 634.5 L 563.5 633.5 L 563.5 632.5 L 563.5 631.5 L 563.5 630.5 L 563.5 629.5 L 563.5 628.5 L 563.5 627.5 L 563.5 626.5 L 563.5 625.5 L 563.5 624.5 L 563.5 623.5 L 563.5 622.5 L 563.5 621.5 L 563.5 620.5 L 563.5 619.5 L 563.5 618.5 L 563.5 617.5 L 563.5 616.5 L 563.5 615.5 L 563.5 614.5 L 563.5 613.5 L 563.5 612.5 L 563.5 611.5 L 563.5 610.5 L 563.5 609.5 L 563.5 608.5 L 563.5 607.5 L 563.5 606.5 L 563.5 605.5 L 563.5 604.5 L 563.5 603.5 L 563.5 602.5 L 563.5 601.5 L 563.5 600.5 L 563.5 599.5 L 563.5 598.5 L 563.5 597.5 L 563.5 596.5 L 563.5 595.5 L 563.5 594.5 L 563.5 593.5 L 563.5 592.5 L 563.5 591.5 L 563.5 590.5 L 563.5 589.5 L 563.5 588.5 L 563.5 587.5 L 563.5 586.5 L 563.5 585.5 L 563.5 584.5 L 563.5 583.5 L 563.5 582.5 L 563.5 581.5 L 563.5 580.5 L 563.5 579.5 L 563.5 578.5 L 563.5 577.5 L 563.5 576.5 L 563.5 575.5 L 563.5 574.5 L 563.5 573.5 L 563.5 572.5 L 563.5 571.5 L 563.5 570.5 L 564.5 569.5 L 564.5 568.5 L 564.5 567.5 L 564.5 566.5 L 564.5 565.5 L 565.5 564.5 L 565.5 563.5 L 565.5 562.5 L 565.5 561.5 L 566.5 560.5 L 566.5 559.5 L 567.5 558.5 L 567.5 557.5 L 568.5 556.5 L 568.5 555.5 L 569.5 554.5 L 570.5 553.5 L 570.5 552.5 L 571.5 551.5 L 572.5 550.5 L 573.5 549.5 L 574.5 548.5 L 575.5 547.5 L 575.5 546.5 L 576.5 545.5 L 577.5 544.5 L 578.5 544.5 L 579.5 543.5 L 580.5 542.5 L 581.5 542.5 L 582.5 541.5 L 583.5 540.5 L 584.5 540.5 L 585.5 539.5 L 586.5 538.5 L 587.5 538.5 L 588.5 537.5 L 589.5 537.5 L 590.5 536.5 L 591.5 536.5 L 592.5 535.5 L 593.5 534.5 L 594.5 534.5 L 595.5 533.5 L 596.5 533.5 L 597.5 532.5 L 598.5 531.5 L 599.5 531.5 L 600.5 530.5 L 601.5 530.5 L 602.5 529.5 L 603.5 529.5 L 604.5 528.5 L 605.5 528.5 L 606.5 527.5 L 607.5 527.5 L 608.5 527.5 L 609.5 527.5 L 610.5 527.5 L 611.5 527.5 L 612.5 527.5 L 613.5 527.5 L 614.5 527.5 L 615.5 528.5 L 616.5 528.5 L 617.5 529.5 L 618.5 530.5 L 619.5 531.5 L 620.5 532.5 L 621.5 533.5 L 621.5 534.5 L 622.5 535.5 L 622.5 536.5 L 622.5 537.5 L 622.5 538.5 L 622.5 539.5 L 622.5 540.5 L 622.5 541.5 L 622.5 542.5 L 622.5 543.5 L 622.5 544.5 L 622.5 545.5 L 622.5 546.5 L 622.5 547.5 L 622.5 548.5 L 622.5 549.5 L 622.5 550.5 L 622.5 551.5 L 622.5 552.5 L 622.5 553.5 L 622.5 554.5 L 622.5 555.5 L 622.5 556.5 L 622.5 557.5 L 622.5 558.5 L 622.5 559.5 L 622.5 560.5 L 622.5 561.5 L 622.5 562.5 L 622.5 563.5 L 622.5 564.5 L 622.5 565.5 L 622.5 566.5 L 622.5 567.5 L 622.5 568.5 L 622.5 569.5 L 622.5 570.5 L 622.5 571.5 L 622.5 572.5 L 622.5 573.5 L 622.5 574.5 L 622.5 575.5 L 622.5 576.5 L 622.5 577.5 L 622.5 578.5 L 622.5 579.5 L 622.5 580.5 L 622.5 581.5 L 622.5 582.5 L 622.5 583.5 L 622.5 584.5 L 622.5 585.5 L 622.5 586.5 L 622.5 587.5 L 622.5 588.5 L 622.5 589.5 L 622.5 590.5 L 622.5 591.5 L 622.5 592.5 L 622.5 593.5 L 622.5 594.5 L 622.5 595.5 L 622.5 596.5 L 622.5 597.5 L 622.5 598.5 L 622.5 599.5 L 622.5 600.5 L 622.5 601.5 L 622.5 602.5 L 622.5 603.5 L 622.5 604.5 L 622.5 605.5 L 622.5 606.5 L 622.5 607.5 L 622.5 608.5 L 622.5 609.5 L 622.5 610.5 L 622.5 611.5 L 622.5 612.5 L 622.5 613.5 L 622.5 614.5 L 622.5 615.5 L 622.5 616.5 L 622.5 617.5 L 622.5 618.5 L 622.5 619.5 L 622.5 620.5 L 622.5 621.5 L 622.5 622.5 L 622.5 623.5 L 622.5 624.5 L 622.5 625.5 L 622.5 626.5 L 622.5 627.5 L 622.5 628.5 L 622.5 629.5 L 622.5 630.5 L 622.5 631.5 L 622.5 632.5 L 622.5 633.5 L 622.5 634.5 L 622.5 635.5 L 622.5 636.5 L 622.5 637.5 L 622.5 638.5 L 622.5 639.5 L 622.5 640.5 L 622.5 641.5 L 622.5 642.5 L 622.5 643.5 L 622.5 644.5 L 622.5 645.5 L 622.5 646.5 L 622.5 647.5 L 622.5 648.5 L 622.5 649.5 L 622.5 650.5 L 622.5 651.5 L 622.5 652.5 L 622.5 653.5 L 622.5 654.5 L 622.5 655.5 L 622.5 656.5 L 622.5 657.5 L 622.5 658.5 L 622.5 659.5 L 622.5 660.5 L 622.5 661.5 L 622.5 662.5 L 622.5 663.5 L 622.5 664.5 L 622.5 665.5 L 622.5 666.5 L 622.5 667.5 L 622.5 668.5 L 622.5 669.5 L 622.5 670.5 L 622.5 671.5 L 622.5 672.5 L 622.5 673.5 L 622.5 674.5 L 622.5 675.5 L 622.5 676.5 L 622.5 677.5 L 622.5 678.5 L 622.5 679.5 L 622.5 680.5 L 622.5 681.5 L 622.5 682.5 L 622.5 683.5 L 622.5 684.5 L 622.5 685.5 L 622.5 686.5 L 622.5 687.5 L 622.5 688.5 L 622.5 689.5 L 622.5 690.5 L 622.5 691.5 L 622.5 692.5 L 622.5 693.5 L 622.5 694.5 L 622.5 695.5 L 622.5 696.5 L 622.5 697.5 L 622.5 698.5 L 622.5 699.5 L 622.5 700.5 L 622.5 701.5 L 622.5 702.5 L 622.5 703.5 L 622.5 704.5 L 622.5 705.5 L 622.5 706.5 L 622.5 707.5 L 623.5 708.5 L 623.5 709.5 L 623.5 710.5 L 623.5 711.5 L 624.5 712.5 L 624.5 713.5 L 625.5 714.5 L 626.5 714.5 L 627.5 715.5 L 628.5 715.5 L 629.5 716.5 L 630.5 716.5 L 631.5 716.5 L 632.5 716.5 L 633.5 715.5 L 634.5 715.5 L 635.5 715.5 L 636.5 714.5 L 637.5 714.5 L 638.5 713.5 L 639.5 713.5 L 640.5 712.5 L 641.5 711.5 L 642.5 711.5 L 643.5 710.5 L 644.5 710.5 L 645.5 709.5 L 646.5 709.5 L 647.5 708.5 L 648.5 707.5 L 649.5 707.5 L 650.5 706.5 L 651.5 706.5 L 652.5 705.5 L 653.5 704.5 L 654.5 704.5 L 655.5 703.5 L 656.5 702.5 L 657.5 702.5 L 658.5 701.5 L 659.5 701.5 L 660.5 700.5 L 661.5 699.5 L 662.5 699.5 L 663.5 698.5 L 664.5 697.5 L 665.5 697.5 L 666.5 696.5 L 667.5 696.5 L 668.5 695.5 L 669.5 694.5 L 670.5 694.5 L 671.5 693.5 L 672.5 693.5 L 673.5 692.5 L 674.5 691.5 L 675.5 691.5 L 676.5 690.5 L 677.5 689.5 L 678.5 689.5 L 679.5 688.5 L 680.5 687.5 L 680.5 686.5 L 680.5 685.5 L 680.5 684.5 L 680.5 683.5 L 680.5 682.5 L 680.5 681.5 L 680.5 680.5 L 680.5 679.5 L 680.5 678.5 L 680.5 677.5 L 680.5 676.5 L 680.5 675.5 L 680.5 674.5 L 680.5 673.5 L 680.5 672.5 L 680.5 671.5 L 680.5 670.5 L 680.5 669.5 L 680.5 668.5 L 680.5 667.5 L 680.5 666.5 L 680.5 665.5 L 680.5 664.5 L 680.5 663.5 L 680.5 662.5 L 680.5 661.5 L 680.5 660.5 L 680.5 659.5 L 680.5 658.5 L 680.5 657.5 L 680.5 656.5 L 680.5 655.5 L 680.5 654.5 L 680.5 653.5 L 680.5 652.5 L 680.5 651.5 L 680.5 650.5 L 680.5 649.5 L 680.5 648.5 L 680.5 647.5 L 680.5 646.5 L 680.5 645.5 L 680.5 644.5 L 680.5 643.5 L 680.5 642.5 L 680.5 641.5 L 680.5 640.5 L 680.5 639.5 L 680.5 638.5 L 680.5 637.5 L 680.5 636.5 L 680.5 635.5 L 680.5 634.5 L 680.5 633.5 L 680.5 632.5 L 680.5 631.5 L 680.5 630.5 L 680.5 629.5 L 680.5 628.5 L 680.5 627.5 L 680.5 626.5 L 680.5 625.5 L 680.5 624.5 L 680.5 623.5 L 680.5 622.5 L 680.5 621.5 L 680.5 620.5 L 680.5 619.5 L 680.5 618.5 L 680.5 617.5 L 680.5 616.5 L 680.5 615.5 L 680.5 614.5 L 680.5 613.5 L 680.5 612.5 L 680.5 611.5 L 680.5 610.5 L 680.5 609.5 L 680.5 608.5 L 680.5 607.5 L 680.5 606.5 L 680.5 605.5 L 680.5 604.5 L 680.5 603.5 L 680.5 602.5 L 680.5 601.5 L 680.5 600.5 L 680.5 599.5 L 680.5 598.5 L 680.5 597.5 L 680.5 596.5 L 680.5 595.5 L 680.5 594.5 L 680.5 593.5 L 680.5 592.5 L 680.5 591.5 L 680.5 590.5 L 680.5 589.5 L 680.5 588.5 L 680.5 587.5 L 680.5 586.5 L 680.5 585.5 L 680.5 584.5 L 680.5 583.5 L 680.5 582.5 L 680.5 581.5 L 680.5 580.5 L 680.5 579.5 L 680.5 578.5 L 680.5 577.5 L 680.5 576.5 L 680.5 575.5 L 680.5 574.5 L 680.5 573.5 L 680.5 572.5 L 680.5 571.5 L 680.5 570.5 L 680.5 569.5 L 680.5 568.5 L 680.5 567.5 L 680.5 566.5 L 680.5 565.5 L 680.5 564.5 L 680.5 563.5 L 680.5 562.5 L 680.5 561.5 L 680.5 560.5 L 680.5 559.5 L 680.5 558.5 L 680.5 557.5 L 680.5 556.5 L 680.5 555.5 L 680.5 554.5 L 680.5 553.5 L 680.5 552.5 L 680.5 551.5 L 680.5 550.5 L 680.5 549.5 L 680.5 548.5 L 680.5 547.5 L 680.5 546.5 L 680.5 545.5 L 680.5 544.5 L 680.5 543.5 L 680.5 542.5 L 680.5 541.5 L 680.5 540.5 L 680.5 539.5 L 680.5 538.5 L 680.5 537.5 L 680.5 536.5 L 680.5 535.5 L 680.5 534.5 L 680.5 533.5 L 680.5 532.5 L 680.5 531.5 L 680.5 530.5 L 680.5 529.5 L 680.5 528.5 L 680.5 527.5 L 680.5 526.5 L 680.5 525.5 L 680.5 524.5 L 680.5 523.5 L 680.5 522.5 L 680.5 521.5 L 680.5 520.5 L 680.5 519.5 L 680.5 518.5 L 680.5 517.5 L 680.5 516.5 L 680.5 515.5 L 680.5 514.5 L 680.5 513.5 L 680.5 512.5 L 680.5 511.5 L 680.5 510.5 L 680.5 509.5 L 680.5 508.5 L 680.5 507.5 L 680.5 506.5 L 680.5 505.5 L 680.5 504.5 L 680.5 503.5 L 680.5 502.5 L 680.5 501.5 L 680.5 500.5 L 680.5 499.5 L 680.5 498.5 L 680.5 497.5 L 680.5 496.5 L 680.5 495.5 L 680.5 494.5 L 680.5 493.5 L 680.5 492.5 L 680.5 491.5 L 680.5 490.5 L 680.5 489.5 L 680.5 488.5 L 680.5 487.5 L 680.5 486.5 L 680.5 485.5 L 680.5 484.5 L 680.5 483.5 L 680.5 482.5 L 680.5 481.5 L 680.5 480.5 L 680.5 479.5 L 680.5 478.5 L 680.5 477.5 L 680.5 476.5 L 680.5 475.5 L 680.5 474.5 L 680.5 473.5 L 680.5 472.5 L 680.5 471.5 L 680.5 470.5 L 680.5 469.5 L 680.5 468.5 L 680.5 467.5 L 680.5 466.5 L 680.5 465.5 L 680.5 464.5 L 680.5 463.5 L 680.5 462.5 L 680.5 461.5 L 680.5 460.5 L 680.5 459.5 L 680.5 458.5 L 680.5 457.5 L 680.5 456.5 L 680.5 455.5 L 679.5 454.5 L 679.5 453.5 L 679.5 452.5 L 679.5 451.5 L 679.5 450.5 L 679.5 449.5 L 678.5 448.5 L 678.5 447.5 L 677.5 446.5 L 677.5 445.5 L 677.5 444.5 L 676.5 443.5 L 676.5 442.5 L 675.5 441.5 L 675.5 440.5 L 674.5 439.5 L 673.5 438.5 L 673.5 437.5 L 672.5 436.5 L 671.5 435.5 L 670.5 434.5 L 669.5 433.5 L 668.5 432.5 L 667.5 431.5 L 666.5 430.5 L 665.5 429.5 L 664.5 428.5 L 663.5 428.5 L 662.5 427.5 L 661.5 426.5 L 660.5 426.5 L 659.5 425.5 L 658.5 425.5 L 657.5 424.5 L 656.5 424.5 L 655.5 423.5 L 654.5 423.5 L 653.5 422.5 L 652.5 422.5 L 651.5 422.5 L 650.5 422.5 L 649.5 421.5 L 648.5 421.5 L 647.5 421.5 L 646.5 421.5 L 645.5 420.5 L 644.5 420.5 L 643.5 420.5 L 642.5 420.5 L 641.5 420.5 L 640.5 420.5 L 639.5 420.5 L 638.5 420.5 L 637.5 420.5 L 636.5 420.5 L 635.5 420.5 L 634.5 420.5 L 633.5 420.5 Z" fill="url(#logoGradient)"/>
</svg>
